<?xml version="1.0" encoding="UTF-8"?>
<svg width="24px" height="24px" viewBox="0 0 24 24" version="1.1" xmlns="http://www.w3.org/2000/svg" xmlns:xlink="http://www.w3.org/1999/xlink">
    <!-- Generator: Sketch 53 (72520) - https://sketchapp.com -->
    <title>Workflow-toolbar/Icon/done</title>
    <desc>Created with Sketch.</desc>
    <g id="Workflow-toolbar/Icon/done" stroke="none" stroke-width="1" fill="none" fill-rule="evenodd">
        <g>
            <g>
                <rect id="bounds" x="0" y="0" width="24" height="24"></rect>
                <g id="Group" transform="translate(2.000000, 2.000000)">
                    <rect id="Rectangle" fill="#E2FFEE" x="0" y="0" width="20" height="20" rx="2.5"></rect>
                    <g id="Group-7" transform="translate(5.500000, 5.500000)" fill="#006644" fill-rule="nonzero">
                        <path d="M5.5,3.5 L8,3.5 C8.55228475,3.5 9,3.94771525 9,4.5 C9,5.05228475 8.55228475,5.5 8,5.5 L5.5,5.5 L5.5,8 C5.5,8.55228475 5.05228475,9 4.5,9 C3.94771525,9 3.5,8.55228475 3.5,8 L3.5,5.5 L1,5.5 C0.44771525,5.5 5.081466e-15,5.05228475 5.16825825e-15,4.5 C5.14402821e-15,3.94771525 0.44771525,3.5 1,3.5 L3.5,3.5 L3.5,1 C3.5,0.44771525 3.94771525,-6.66133815e-16 4.5,0 C5.05228475,5.55111512e-16 5.5,0.44771525 5.5,1 L5.5,3.5 Z" id="Combined-Shape"></path>
                    </g>
                </g>
            </g>
        </g>
    </g>
</svg>