<?xml version="1.0" encoding="UTF-8"?>
<svg width="24px" height="24px" viewBox="0 0 24 24" version="1.1" xmlns="http://www.w3.org/2000/svg" xmlns:xlink="http://www.w3.org/1999/xlink">
    <!-- Generator: Sketch 53 (72520) - https://sketchapp.com -->
    <title>Workflow-toolbar/Icon/to-do</title>
    <desc>Created with Sketch.</desc>
    <g id="Workflow-toolbar/Icon/to-do" stroke="none" stroke-width="1" fill="none" fill-rule="evenodd">
        <g>
            <g>
                <rect id="bounds" x="0" y="0" width="24" height="24"></rect>
                <g id="Group" transform="translate(2.000000, 2.000000)">
                    <rect id="Rectangle" fill="#DFE1E6" x="0" y="0" width="20" height="20" rx="2.5"></rect>
                    <path d="M11,9 L13.5,9 C14.0522847,9 14.5,9.44771525 14.5,10 C14.5,10.5522847 14.0522847,11 13.5,11 L11,11 L11,13.5 C11,14.0522847 10.5522847,14.5 10,14.5 C9.44771525,14.5 9,14.0522847 9,13.5 L9,11 L6.5,11 C5.94771525,11 5.5,10.5522847 5.5,10 C5.5,9.44771525 5.94771525,9 6.5,9 L9,9 L9,6.5 C9,5.94771525 9.44771525,5.5 10,5.5 C10.5522847,5.5 11,5.94771525 11,6.5 L11,9 Z" id="Combined-Shape" fill="#42526E" fill-rule="nonzero"></path>
                </g>
            </g>
        </g>
    </g>
</svg>