<?xml version="1.0" encoding="UTF-8"?>
<svg width="64px" height="62px" viewBox="0 0 64 62" version="1.1" xmlns="http://www.w3.org/2000/svg" xmlns:xlink="http://www.w3.org/1999/xlink">
    <!-- Generator: Sketch 53.2 (72643) - https://sketchapp.com -->
    <title>Artboard Copy</title>
    <desc>Created with Sketch.</desc>
    <g id="Artboard-Copy" stroke="none" stroke-width="1" fill="none" fill-rule="evenodd" opacity="0.5">
        <g id="Group-2" transform="translate(2.000000, 0.000000)">
            <path d="M49.0000439,54.012424 L48.0000439,54.2860269 C48.0393032,54.2935024 48.2993032,54.2286151 49.0000439,54.012424" id="Fill-1" fill="#FF1B1B"></path>
            <path d="M37.9439053,2.1375555 C37.981034,2.14533001 38.0235093,2.15459962 38.0561825,2.16147707 C37.9774697,2.14204079 37.9519251,2.13725648 37.9439053,2.1375555" id="Fill-3" fill="#FF1B1B"></path>
            <path d="M31.9277172,59.1566863 C31.9378162,59.1563873 31.945539,59.1563873 31.9523706,59.1560882 C31.9912815,59.1513039 32.0376182,59.1498088 32.0723706,59.1423333 C32.0242518,59.1504069 31.976133,59.1516029 31.9277172,59.1566863" id="Fill-5" fill="#FF1B1B"></path>
            <polygon id="Fill-10" fill="#FF1B1B" points="58.0285588 31.1495098 58.051133 30.3840023 57.9489548 30.1495098"></polygon>
            <path d="M59.0000439,28.8156797 C58.9140299,28.5929037 58.8517922,28.3698878 58.7231208,28.1495098 C58.1804635,28.5535761 58.2482957,28.0358437 58.0000439,29.0849773 C58.2273166,29.4439609 58.4846593,30.2475373 58.7461978,30.1396264 C58.6986453,29.8756045 58.4322117,29.4935999 58.404939,29.1046411 C58.5203236,29.1854544 58.5951488,29.3302948 58.6783656,29.4794516 C58.7524915,29.6286084 58.8112327,29.7823215 58.948995,29.8801607 C59.1154285,29.2432466 58.7287152,29.4828088 58.6874565,28.7885821 L59.0000439,28.8156797 Z" id="Fill-12" fill="#FF1B1B"></path>
            <path d="M57.9226991,27.1535551 C57.981808,27.2238247 58.0403229,27.2973835 58.0786397,27.2803394 C58.0195308,27.2070796 57.9084417,26.8114766 57.9226991,27.1535551" id="Fill-14" fill="#FF1B1B"></path>
            <path d="M58.0189053,27.1495098 C57.9636578,26.3148228 58.1240538,27.1385208 58.1329647,27.0529976 C58.0441528,26.7496054 57.9675192,26.4457353 57.8671231,26.1495098 C57.9306875,26.4791801 57.9678162,26.8160172 58.0189053,27.1495098" id="Fill-16" fill="#FF1B1B"></path>
            <path d="M57.0367821,24.2680711 C57.0115346,24.1849436 56.9880692,24.1080956 56.9649009,24.0309485 C56.9548019,24.1188603 56.9943068,24.1831495 57.0367821,24.2680711" id="Fill-18" fill="#FF1B1B"></path>
            <path d="M57.0020342,24.1495098 C56.9801327,24.3654709 57.1424026,24.6074617 57.3206009,24.9198187 C57.3225919,24.9098073 57.3240852,24.9017981 57.326574,24.886638 C57.301686,24.5943039 57.6232392,24.8297158 57.7481771,25.2931025 C57.966694,25.7665007 57.7257779,25.7490521 58.0000439,26.1495098 L57.9980529,25.5585487 C57.6979033,24.8071185 57.1966585,24.4275418 57.0020342,24.1495098" id="Fill-20" fill="#FF1B1B"></path>
            <path d="M56.9641033,24.0116618 C56.9890538,24.0986765 57.0131132,24.1877843 57.0359845,24.2873578 C57.0288558,24.1593775 56.9970736,24.0795392 56.9641033,24.0116618" id="Fill-22" fill="#FF1B1B"></path>
            <polygon id="Fill-24" fill="#FF1B1B" points="57.9410835 26.0183897 58.0153409 26.2806299 58.0590043 26.2076691"></polygon>
            <path d="M56.0449604,21.7850637 C56.4591937,21.8431449 56.685685,23.0493275 57.0000439,23.1495098 C56.6403867,22.4491556 56.571075,21.8505202 56.8199424,21.9719068 L56.2605364,21.2205395 C55.9898384,20.9894441 55.9538181,21.3603645 56.0449604,21.7850637" id="Fill-26" fill="#FF1B1B"></path>
            <path d="M56.0478657,20.229049 C56.0151924,20.1859902 55.9822221,20.1321667 55.9522221,20.0699706 C55.990836,20.1477157 56.0261825,20.213201 56.0478657,20.229049" id="Fill-28" fill="#FF1B1B"></path>
            <path d="M54.0000439,17.1495098 L54.2771095,17.5258571 L54.5347157,17.9138811 L55.0511636,18.69442 C54.9177273,18.5656775 54.8964146,18.6522044 54.6805072,18.2878332 C54.7707003,18.4716655 54.8479204,18.6120847 54.9180362,18.7291505 C54.9822833,18.848911 55.039735,18.9447194 55.0959512,19.0363362 C55.2083837,19.2198691 55.3140207,19.3875338 55.4490014,19.6986116 C55.3764146,19.950408 54.9322447,18.6201685 54.9563373,19.036935 C55.1608161,19.4656775 55.4752563,20.1007074 55.744291,20.4087912 L55.9191173,21.1495098 L56.0000439,20.8456176 C55.9354879,20.5423242 55.6284609,20.3261565 55.6794262,20.1025038 C55.7180362,19.9830427 55.8490014,20.2632823 55.9490787,20.4575936 C55.7371868,20.0144799 55.5592717,19.1626835 55.0814339,18.2755577 C54.5643682,17.347414 54.4312408,17.695917 54.0000439,17.1495098" id="Fill-30" fill="#FF1B1B"></path>
            <polygon id="Fill-32" fill="#FF1B1B" points="55.0172716 17.2185833 55.020836 17.0804363 54.9792518 17.2015392"></polygon>
            <path d="M53.1778155,15.0990007 L53.7522836,15.8296192 C53.7917572,15.9233334 53.7903575,15.9903141 53.7970764,16.0634641 C53.812194,16.0088219 53.9910853,16.1927251 54.0000439,16.1398456 C53.9219364,15.6824379 53.3735042,15.1891897 53.0857102,14.7890681 C52.4051391,13.6577406 53.1884538,14.7884806 53.0204806,14.2737867 C53.2200887,14.5878322 53.2130898,14.6095716 53.4703687,15.0575785 C53.1859342,14.2670299 52.4675691,13.5246605 52.1179051,13.1495098 C52.1954526,13.2796521 52.1789353,13.3401698 52.3611861,13.5599135 L52.0000439,13.1650799 C52.1165053,13.4283023 52.243325,13.6536277 52.4227763,13.9438774 C52.5938289,14.2408839 52.8382298,14.5872447 53.1778155,15.0990007" id="Fill-34" fill="#FF1B1B"></path>
            <path d="M54.1184178,17.1495098 C53.9321802,16.4951888 53.8769327,16.2307314 53.8819822,16.1495098 C53.8894079,16.3749809 53.9208931,16.6348899 54.1184178,17.1495098" id="Fill-36" fill="#FF1B1B"></path>
            <path d="M51.9085588,13.0364804 C51.9376677,13.0906029 52.0021231,13.1665539 52.0915291,13.2625392 C52.0555885,13.2051275 52.0036083,13.1363529 51.9085588,13.0364804" id="Fill-38" fill="#FF1B1B"></path>
            <path d="M53.0000439,14.1427858 L52.0000439,13.1495098 L52.2528403,13.6215782 C52.4124227,13.7447025 52.9441155,14.2106974 53.0000439,14.1427858" id="Fill-40" fill="#FF1B1B"></path>
            <path d="M30.2228105,2.1495098 C30.2858122,2.21504437 30.5332972,2.25494765 31.0584115,2.25436512 C30.9926968,2.34640478 30.316258,2.29543345 30.0000439,2.36213308 C30.6882391,2.40815291 29.9882876,2.46320195 30.1631248,2.5462124 C30.544752,2.55174643 30.8208741,2.53805699 31.1051352,2.51854225 C31.3890948,2.50252269 31.6814949,2.47747392 32.090252,2.52611513 C32.0474471,2.54825125 32.0586005,2.58786326 32.1625984,2.62572768 C33.1483182,2.60970812 34.8231374,2.76349591 35.7530901,3.01747877 C36.6528984,3.23505355 37.3317488,3.34223898 38.3222916,3.58515378 C41.517591,4.5527353 44.7484608,6.01197172 47.5485679,8.22645765 L48.061926,8.39830386 C48.1505503,8.56082959 48.7217854,8.93393974 48.5701594,8.95258069 C48.4345099,8.81481246 48.2855969,8.70063667 48.0962905,8.56345097 C48.3485986,8.85529826 48.729623,9.18326237 49.1435047,9.50569246 C49.5414099,9.84472463 49.9619233,10.1910384 50.2706013,10.5254104 C50.2196574,10.4304581 50.2229733,10.2178348 50.436998,10.3955063 C50.2434714,10.4796818 51.2062814,11.1603675 51.2165305,11.5075551 C51.7799281,12.2188237 51.3678551,11.4222145 51.9779764,12.1495026 C52.134124,12.152124 51.4121672,11.4347389 51.3621276,11.2497858 C51.6319194,11.411729 51.9098502,11.918821 51.9728519,11.8087229 C51.0085346,10.6055082 48.7766481,8.76762757 46.7856149,7.51839303 L47.0545023,7.57344207 C46.7943567,7.41790669 46.4992437,7.23295357 46.1917715,7.03198089 C45.8794762,6.83799857 45.5457784,6.64139486 45.2274542,6.43517941 C44.9121445,6.22342993 44.5850785,6.04488464 44.3035304,5.85701887 C44.0195708,5.67264828 43.77088,5.49468552 43.5713245,5.35371337 C43.6490969,5.44895695 43.2542061,5.23808127 42.8466547,5.0394387 C42.4412134,4.8361359 42.0032163,4.68584329 42.0399924,4.82040761 C41.7816554,4.65030899 41.6924282,4.62059999 41.3008533,4.42836525 L41.1603807,4.45283149 C40.5822124,4.23059648 40.7178619,4.16214926 40.0486577,3.91515675 C40.4471657,4.17496491 39.9555117,4.00923526 39.7291277,4.02904127 C39.3610654,3.85428242 38.9613515,3.66000882 38.562542,3.49107527 C38.1595122,3.32913206 37.7667316,3.17126656 37.4251963,3.0337896 C37.4722214,3.0792269 37.5282899,3.13194582 37.7573868,3.23883999 C37.2880395,3.07369287 37.3462181,3.18757739 37.2099657,3.19107257 C36.745743,3.09204255 36.822611,2.97932309 36.85999,2.92194393 C36.0093169,2.68223304 35.5731284,2.86136087 34.9425089,2.67145624 L35.1541221,2.81009827 C34.7094932,2.7346607 34.3019418,2.66533969 33.8817298,2.59427108 C33.6710209,2.56019311 33.4572976,2.5255326 33.2354353,2.48941577 C33.0120658,2.45883297 32.7778443,2.44718238 32.5288521,2.43524053 C32.0595048,2.26397685 33.3578213,2.36621078 33.7756217,2.37757011 C33.5766691,2.32689004 33.1498254,2.25727776 33.0177932,2.20921908 C32.7995482,2.22523864 32.5098612,2.2462097 32.2078149,2.26834582 C31.9063716,2.28465665 31.5937748,2.30591898 31.3276004,2.33766684 C31.8397526,2.1899956 30.5679632,2.16611189 30.2228105,2.1495098" id="Fill-42" fill="#FF1B1B"></path>
            <path d="M32.8798085,2.17358088 C33.0012936,2.16191912 33.105551,2.15205147 33.1679273,2.14607108 C33.0713926,2.14098775 32.9813926,2.14248284 32.8373332,2.12543873 C32.8221847,2.14248284 32.8414916,2.15833088 32.8798085,2.17358088" id="Fill-44" fill="#FF1B1B"></path>
            <path d="M30.0403484,2.15728431 C30.037081,2.15190196 30.0216355,2.14771569 30.0198533,2.14173529 C29.9218335,2.15339706 29.9545068,2.15668627 30.0403484,2.15728431" id="Fill-46" fill="#FF1B1B"></path>
            <path d="M36.1397964,3.1815049 C36.1035588,3.17223529 36.055737,3.16027451 36.016232,3.15040686 C35.9615786,3.1387451 35.9152419,3.12917647 35.8602914,3.11751471 L36.1397964,3.1815049 Z" id="Fill-48" fill="#FF1B1B"></path>
            <path d="M36.0000439,3.00882108 C36.2527681,3.08865931 36.6048218,3.18105637 37.0000439,3.29019853 C36.9049056,3.22142402 36.8202451,3.17358088 36.0000439,3.00882108" id="Fill-50" fill="#FF1B1B"></path>
            <path d="M42.9529276,5.19760964 C43.1293633,5.25860964 43.046492,5.18415376 43.1786702,5.21136455 C42.8320366,5.04481062 42.6998583,5.02417827 42.9529276,5.19760964" id="Fill-52" fill="#FF1B1B"></path>
            <path d="M32.0000439,2.14078062 C31.7565907,2.12612866 31.5122741,2.14347179 31.2688209,2.14406983 L31.0000439,2.16410415 C31.3327058,2.15752571 31.6668065,2.13210905 32.0000439,2.14078062" id="Fill-54" fill="#FF1B1B"></path>
            <path d="M17.7830783,5.76571579 C18.1088399,5.67332654 18.4704957,5.48521598 18.8586949,5.30649579 C19.2484023,5.13171351 19.6468571,4.92785134 20.0272139,4.78063438 C21.3963176,4.17692366 20.094176,4.44106603 21.4313068,3.93307663 L21.2862222,4.25477296 C21.6213344,4.13966505 21.9920391,4.01244051 22.3769204,3.8797635 C22.7669295,3.763141 23.1717184,3.64167186 23.5701731,3.52232313 C23.9668181,3.3950986 24.3664793,3.30634434 24.7305481,3.18790435 C25.0946169,3.06855562 25.4348568,2.97010806 25.7229145,2.86257304 C25.8357246,2.87438674 26.0884914,2.86863135 25.7310586,2.97010806 C26.663702,2.7956287 26.1545487,2.5018006 27.4370842,2.42607171 C26.2730897,2.73565142 27.8427781,2.52754843 27.5360192,2.7274727 L27.3544373,2.76927504 C27.5526089,2.73716599 27.7670687,2.70263362 27.9854496,2.6671925 C28.2047354,2.63932427 28.4282441,2.61085021 28.6427038,2.5835878 C29.0725282,2.52815426 29.4694748,2.47665861 29.7352118,2.48332275 C29.7554211,2.41668133 29.2854798,2.32641249 30.0000439,2.30036175 C29.710478,2.29460636 29.8235897,2.21675706 29.8477202,2.1495098 C29.6616138,2.17313722 29.4969232,2.1864655 29.3479174,2.2000967 C29.1989116,2.21705997 29.065289,2.23281158 28.9407154,2.24704861 C28.6918697,2.27491685 28.479823,2.3012705 28.2596323,2.36215653 C27.837952,2.30793464 28.536228,2.31338712 28.1139445,2.25916524 C27.917281,2.29672677 27.7227289,2.35458364 27.5284784,2.40517054 C27.0911133,2.44000583 27.9688599,2.26098273 27.2862686,2.32974456 C27.2503745,2.36003612 27.0965427,2.40607929 26.8854009,2.45212245 C26.6736558,2.49483354 26.4055058,2.54299712 26.1409753,2.58994903 L26.2887745,2.53330382 C25.8900182,2.63932427 25.3132994,2.69899863 25.5346967,2.80592783 C25.3681963,2.78866164 25.1998861,2.76594297 25.0330841,2.75412927 L25.1341305,2.83167565 C24.5854635,2.93739318 24.1948512,2.9592031 23.7659318,3.00918417 C23.3424416,3.07734017 22.878533,3.17306149 22.2010695,3.44477675 C22.5407061,3.36056622 22.2541565,3.51293275 22.0843382,3.59108496 C22.6758369,3.46022544 22.7747719,3.30785891 23.3228356,3.13095623 C23.4284065,3.20183847 22.5292441,3.57987709 23.2103272,3.44689716 C22.4456923,3.52989602 21.8496692,3.88279265 21.4632797,3.75677978 C21.0231999,3.89036554 20.7405715,4.04091457 20.4516089,4.175712 C20.1647577,4.31717357 19.8664445,4.4325844 19.4336039,4.60676085 L19.4444626,4.56223226 C19.398313,4.67158478 19.2188425,4.73307663 18.9793474,4.82213381 C18.7398523,4.91028224 18.4394277,5.02569307 18.1718808,5.26348178 C18.3236013,5.20077826 18.4720038,5.13110768 18.6261373,5.07446247 C18.6315667,5.14049807 18.4225363,5.25166808 18.1320655,5.41403082 C18.153783,5.3746518 18.153783,5.3746518 18.043386,5.39525005 C18.0252881,5.4700702 17.7860946,5.63152419 17.539662,5.78479947 C17.2920228,5.93656016 17.049813,6.10498122 17.0000439,6.1495098 C17.3840203,5.93868057 17.8198773,5.61759008 18.26418,5.35405354 C18.0620871,5.5342883 18.1773102,5.58578394 17.7830783,5.76571579" id="Fill-56" fill="#FF1B1B"></path>
            <path d="M26.1403904,2.09807843 C26.045638,2.12648529 25.9529647,2.16655392 25.8596974,2.20094118 C25.976133,2.17014216 26.0797964,2.13336275 26.1403904,2.09807843" id="Fill-58" fill="#FF1B1B"></path>
            <path d="M13.7928973,7.98431459 C13.3193355,8.31180339 13.8588473,7.80585334 13.4015551,8.09368408 C13.1993471,8.31552133 13.3533273,8.24054282 13.5099223,8.1699019 C13.6717468,8.10514773 13.836186,8.04535082 13.6435655,8.26687825 C13.330085,8.43170705 12.9648904,8.90016784 12.7873774,9.05074453 C12.9436818,8.83045641 12.7359538,8.8031915 12.637174,8.84501836 C12.4872612,9.01449459 12.0796494,9.30387447 11.7923165,9.5579339 C12.5415901,8.99745401 11.2510615,10.1366937 11.938743,9.6446859 C11.9448441,9.70076487 11.7972555,9.89037995 11.6107361,10.0895997 C11.432642,10.2981143 11.2159076,10.517473 11.0680284,10.6181673 C11.0421714,10.5509345 11.2539668,10.3545031 11.4192777,10.1831679 C11.4724444,9.95172601 10.9576275,10.5565114 10.7870872,10.5685947 C10.7231709,10.6643317 10.6354312,10.7795879 10.5334556,10.9081668 C10.4343853,11.0395341 10.3234034,11.1867027 10.2071919,11.3406875 C9.97389731,11.6474178 9.70399613,11.9659215 9.5003355,12.272342 C9.07964992,12.8740291 8.80800557,13.3130562 9.16622748,13.0909091 C9.39835992,12.8901402 9.51137559,12.6435166 9.71154988,12.3795427 C9.08778473,13.0605459 9.59998685,12.2853548 9.61509434,12.1883785 C9.89516403,11.9117015 10.2972558,11.3515315 10.2597776,11.5355697 L9.91608209,12.075291 C11.2548384,10.589663 13.2202652,8.69072373 15.0825542,7.38479631 C14.8082951,7.56263791 14.5462382,7.75968888 14.2847624,7.95797916 C14.3356049,7.82723151 14.6987658,7.53134522 14.9829029,7.30455071 C14.8193352,7.3445186 14.6490854,7.37612111 14.4887135,7.4247642 C14.725785,7.26582214 14.9413573,7.09479677 14.9544311,7.16295905 C15.2010899,6.89898511 15.0456571,6.9476282 14.8388006,7.01207254 C15.4375803,6.5659194 15.5677372,6.55042797 16.0000439,6.1495098 C15.4317697,6.3989218 15.2391492,6.591945 15.0195095,6.77722249 C14.8033561,6.96993586 14.5622173,7.15893128 13.9631471,7.54064008 L13.7928973,7.98431459 Z" id="Fill-60" fill="#FF1B1B"></path>
            <polygon id="Fill-62" fill="#FF1B1B" points="16.0238063 6.05546814 15.8135093 6.2836201 16.1865786 6.01539951"></polygon>
            <path d="M16.0957688,7.19084028 C16.0622044,7.16482558 16.2044816,7.05119813 16.1721054,7.0263795 C15.6754717,7.3116442 15.7636896,7.32390401 16.0957688,7.19084028" id="Fill-64" fill="#FF1B1B"></path>
            <path d="M11.0000439,11.1495098 L10.0000439,12.1495098 L10.7330948,11.5671039 C10.6574289,11.5326577 10.8832158,11.2798755 11.0000439,11.1495098" id="Fill-66" fill="#FF1B1B"></path>
            <path d="M7.08962083,15.1495098 C7.75931495,14.4197597 7.97614798,14.0661352 8.9220376,13.3420103 C9.23022487,12.8940348 8.52036332,13.3992857 8.59963178,13.1765764 C8.14819254,13.5544919 8.38813072,13.6112559 7.98858921,14.0351962 C7.74154176,14.1387522 7.40207366,14.6521854 7.00004391,15.0439083 C7.08713258,15.0139921 7.13405383,15.0372602 7.08962083,15.1495098" id="Fill-68" fill="#FF1B1B"></path>
            <path d="M4.89436622,17.5008462 C4.67718258,17.9252848 4.57442903,18.4073818 4.37417637,18.7288804 C4.33739527,18.654015 4.43051567,18.3835335 4.56070909,18.1266365 C4.35782921,18.2368215 4.36600279,18.6177898 4.07934374,19.0546053 C4.10736743,19.0177763 4.20486654,18.8571779 4.17538328,19.0023806 C3.9313436,19.5952663 3.89427058,19.7754867 3.83501214,19.997366 C3.77020735,20.217434 3.69985619,20.4845949 3.40385591,21.2643422 C3.36444759,21.5049379 3.29351261,21.7316472 3.39801764,21.7222891 C3.0380883,22.5992407 3.14697203,22.1331432 2.76894406,23.2123521 C2.83024589,23.1824663 3.03983978,22.8507039 3.15689709,22.892061 C2.88950433,23.6476582 2.81360682,24.0530785 2.74996968,24.3833316 C2.70355543,24.7178109 2.674656,24.9801417 2.52578012,25.4743137 C2.53891622,25.3596006 2.53278604,25.2201336 2.59554744,24.9496521 C2.4107662,25.0510827 2.4671055,25.8027555 2.37894763,26.3639442 L2.24495933,26.2887769 C2.22861218,26.5532208 2.20613484,26.9145672 2.18278176,27.2913092 C2.16818608,27.6689569 2.13636751,28.0607927 2.06017809,28.3895364 L2.00004391,28.2346737 C2.030111,29.591911 1.98165336,31.1737446 2.14512492,32.3166495 L2.10279746,32.9439491 C2.252841,33.727319 2.21372459,33.3330681 2.19066342,32.8868945 C2.18307367,32.4374002 2.18511707,31.9387 2.3328253,32.5053224 C2.21226502,32.6031304 2.23795341,32.8068972 2.31531049,33.0945856 C2.39208374,33.3828778 2.49892407,33.7553935 2.50213512,34.2085104 C2.45134217,34.6456277 2.33749591,33.3125405 2.2767779,33.7964488 C2.43849798,33.974556 2.3611409,34.2700932 2.48841519,34.7343795 C2.3459614,34.6537784 2.6422536,35.7272517 2.451926,35.4612984 C2.62036009,36.0040726 2.84192243,36.5308473 3.03283386,37.0591314 C3.03020664,37.3398767 3.17470382,37.8080873 3.28650669,38.1495098 C3.04742953,37.2743694 3.53288168,38.3330508 3.32066056,37.3413861 C3.10668797,36.6383154 2.86527551,35.682574 2.69363038,34.6655516 C2.59321213,34.1599082 2.5514685,33.6325297 2.48607988,33.1235657 C2.43295162,32.6127905 2.42039934,32.1116753 2.39879775,31.6519172 C2.2052591,31.459018 2.36785492,30.4682589 2.21518416,30.1751367 C2.26831241,30.1319683 2.31501857,29.9931051 2.37340127,29.9487292 C2.36493578,28.759939 2.27152346,30.2270594 2.21547607,29.9378616 C2.2052591,29.4138038 2.31968919,28.9957047 2.38157485,29.0467218 C2.41339342,28.1960335 2.33194956,28.950725 2.25751161,28.5108908 L2.48899902,27.9684185 C2.50884913,27.3048936 2.58503856,26.5921629 2.65889267,25.8453201 C2.76310579,25.1030055 2.86907039,24.3256731 3.04392657,23.550454 C3.37232925,21.9957893 3.87062559,20.4299552 4.49035794,19.0582278 C4.42146635,19.1113581 4.35987261,19.1675071 4.29535972,19.2230524 C4.88210585,17.9929051 4.97902113,16.9930897 5.796087,16.0596872 L5.90818179,15.6449087 C5.84921526,15.8719199 6.17732603,15.5329125 6.07428057,15.8867119 C6.21235565,15.5392519 6.46194169,15.2310358 6.63212725,14.8862927 L6.22665941,15.4317838 C6.39042288,14.9729313 6.72145278,14.5593603 6.87879416,14.4757405 C7.10590286,14.0165861 6.98154771,14.1110735 6.77166191,14.3392923 C6.56878203,14.5720391 6.2847502,14.9409324 6.18228856,15.0097603 C5.89592142,15.6823414 5.69625259,15.981803 5.45454821,16.2546995 C5.21255193,16.5266903 4.99390872,16.8098506 4.7209696,17.454961 C4.41037364,18.2658016 4.8572932,17.420547 4.89436622,17.5008462" id="Fill-70" fill="#FF1B1B"></path>
            <path d="M5.9629152,17.2472892 C5.99737064,17.167451 6.02113302,17.1031618 6.03717262,17.0517304 C6.00746965,17.1184118 5.98281619,17.182701 5.9629152,17.2472892" id="Fill-72" fill="#FF1B1B"></path>
            <path d="M3.92755197,38.1495098 C3.957849,38.3944878 3.98814603,38.6867423 4.04666088,39.064954 C4.11943316,39.3507617 4.02557177,38.8787134 3.92755197,38.1495098" id="Fill-74" fill="#FF1B1B"></path>
            <path d="M7.00360827,15.1438344 C7.00360827,15.1438344 7.00301421,15.1435354 7.00063797,15.1459275 C7.00034094,15.1477217 6.99855876,15.1507119 6.99647955,15.1551972 C6.99915282,15.1510109 7.00182609,15.1468246 7.00360827,15.1438344" id="Fill-76" fill="#FF1B1B"></path>
            <polygon id="Fill-78" fill="#FF1B1B" points="7.11232114 13.9940196 6.88776668 14.305 6.97242015 14.2822745"></polygon>
            <path d="M4.97063797,42.1695902 L5.02944985,42.1459676 C4.99737064,42.1232421 4.97242015,42.1178598 4.97063797,42.1695902" id="Fill-80" fill="#FF1B1B"></path>
            <path d="M11.0849944,51.2333848 L10.9150934,51.0656348 C10.9623211,51.1257377 11.0244003,51.1825515 11.0849944,51.2333848" id="Fill-82" fill="#FF1B1B"></path>
            <path d="M35.9431177,58.6236231 C36.2947597,58.5510405 36.6959921,58.4298722 37.0740823,58.3178877 C37.2628268,58.2607105 37.4452599,58.203237 37.6105616,58.146356 C37.7749617,58.0850312 37.9207278,58.0183738 38.0406467,57.9588265 L38.008488,58.0343716 C38.3700481,57.9055006 39.5211494,57.4637841 38.7255971,57.5766573 L38.5569893,57.6812354 C37.7157537,58.0074123 37.9029955,57.7727782 37.2126352,57.8871327 C36.8056924,57.9934883 36.4979305,58.1368758 36.1949775,58.2586367 C35.8902212,58.3700286 35.5920769,58.4689779 35.2166917,58.5057135 C34.8933013,58.5705934 34.9341759,58.4977146 35.0219362,58.433131 C34.2756739,58.5243776 34.0051801,58.7332375 33.4906408,58.8241878 C33.3611043,58.59222 32.7915647,58.6677651 32.1039094,58.7747132 C31.4162541,58.8458144 30.6041716,58.9604652 30.0499599,58.7770832 C29.3424684,58.8105601 28.4050572,58.7068708 27.5001052,58.7068708 C27.9887973,58.6473235 26.6603723,58.5919238 26.8740624,58.4817168 C26.8016302,58.5427454 26.6053719,58.5474855 26.3499056,58.5193412 C26.0956414,58.4817168 25.7818686,58.4129856 25.4717024,58.3469207 C25.3163188,58.3155177 25.1615362,58.2841146 25.0160707,58.2544891 C24.8712062,58.220716 24.7347571,58.1907943 24.6133355,58.1718339 C24.3713938,58.1333208 24.1904635,58.1342095 24.1303538,58.2112359 C23.5445845,58.030224 23.5337648,58.0248914 23.4967973,58.0234101 C23.4601303,58.0213363 23.3994195,58.0145225 22.7312999,57.7843322 C22.7457262,57.7473003 22.9723399,57.8106989 23.0643078,57.8287705 C22.5488668,57.6113192 22.1924162,57.7440415 21.8059106,57.4380099 C20.745575,57.0555445 21.5943244,57.4700055 20.924702,57.3432083 C19.8415247,56.8733476 20.1634123,56.9601503 19.6233263,56.5753149 C19.4607295,56.6831518 18.8503152,56.3368295 18.2949013,56.164409 C18.413618,56.2467679 19.1385414,56.5919052 18.6285103,56.4387413 C18.0123856,56.1371535 17.7620286,56.0245766 17.5068628,55.9422176 C17.251697,55.8601549 17.0082526,55.7780923 16.436008,55.4768008 C15.9641466,54.9950899 17.5549506,56.105158 16.646392,55.420216 C17.3881461,55.7582432 17.9483687,56.0142076 18.3907763,56.0956778 C17.4236108,55.6089306 16.2496678,55.0107914 15.2178843,54.4203549 C14.6759951,54.0485546 15.5499906,54.5264142 15.1241131,54.2363804 C14.6606671,53.8776154 14.2717572,53.6515727 13.8966725,53.4504155 C13.5345113,53.2326679 13.1948914,53.0279556 12.8507632,52.7094813 L13.0650544,52.7542159 C12.7930578,52.6374913 12.4137654,52.2840589 11.978571,51.899816 C11.7576678,51.7111014 11.5502892,51.4838737 11.3293859,51.2788652 C11.1150948,51.067339 10.8863772,50.8771432 10.690119,50.6896137 C10.7514309,50.8238172 10.7911033,50.911805 10.6690806,50.8312236 C10.7616495,50.7521235 10.4776311,50.5038617 10.0902239,50.1619832 C9.69890954,49.8251411 9.24538164,49.3526141 8.95505165,48.898455 C8.89464137,49.0596178 8.15679444,48.3077222 7.75315762,47.7789067 C7.65067053,47.564418 7.73181866,47.5682693 7.7666823,47.5472352 C8.04048212,48.0159109 8.24756014,48.1898126 8.44051237,48.3349777 C8.63677063,48.4783652 8.82491408,48.5903496 9.12245724,48.8951962 C8.8657887,48.6484156 8.5778631,48.2775042 8.2887353,47.9228867 C8.00922506,47.5608629 7.74955103,47.1991354 7.52023242,46.9816841 L7.76187353,47.1096663 C7.47905725,46.7112031 7.30954782,46.5672231 7.14244277,46.4125779 C6.97623937,46.2579327 6.81123816,46.0923261 6.58552613,45.628983 L6.7144615,45.6701625 C6.45268363,45.227261 6.17798217,44.7645105 5.93123173,44.2825033 C5.69469995,43.7948674 5.43682921,43.312564 5.23185503,42.8201879 C5.12215478,42.5775549 5.01395727,42.3375882 4.90756305,42.1023616 C4.8077809,41.8650613 4.70980204,41.6322047 4.61482867,41.4067545 C4.51474597,41.1827856 4.41736821,40.9656306 4.32419813,40.7573632 C4.23613737,40.5470221 4.14717498,40.3473461 4.05670983,40.1601128 C3.93949586,40.0457583 4.04649118,40.8927518 4.01012479,40.9543729 C4.22441598,41.406162 4.41496382,41.7524843 4.59379026,42.0697736 C4.78103207,42.3835078 4.96947607,42.6631727 5.15431348,42.9934972 L5.02267318,43.0417867 C5.17024256,43.1647326 5.63969955,43.9435874 5.47740328,43.4651354 C5.82453696,43.9770643 5.58139311,43.933811 5.97962006,44.5221738 C5.82243312,44.5405416 5.61505456,44.1722964 5.50294991,44.221771 C5.62256827,44.3930065 5.72986414,44.5698709 5.85910006,44.734885 C5.71002793,44.59209 6.00246176,45.0788372 5.85729676,44.9422636 C6.22757269,45.3940527 6.40008762,45.754299 6.60476124,46.1050651 C6.7027401,46.2828182 6.79921622,46.4632376 6.91582909,46.6593585 C7.02943648,46.8575532 7.17159599,47.0658206 7.36544986,47.2942333 C7.24342711,47.1102588 7.11839888,46.9286544 7.00899917,46.7369773 C7.04446391,46.7171282 7.11208736,46.7873407 7.19233384,46.8907338 C7.27558582,46.9926455 7.3798762,47.120924 7.47064189,47.232316 C7.56952239,47.5564191 7.68433198,47.7131381 8.01794097,48.2265483 C8.20758717,48.413189 8.3764955,48.5417638 8.55291756,48.6922614 C8.72903906,48.8430553 8.91057045,49.0172533 9.14800388,49.2806241 C8.93220995,49.2634413 9.85579593,50.2259743 9.86781788,50.3960248 C9.97721759,50.3992836 10.2263724,50.637769 10.4653086,50.8765507 C10.6997365,51.1194799 10.9506946,51.3369312 11.014411,51.3428563 C11.3137574,51.5801567 11.6792246,51.9501794 11.6245247,52.0049866 C11.5791419,51.9735835 11.4880756,51.9048523 11.3964083,51.8293073 C11.4874745,51.9169988 11.5764369,52.0073566 11.6735141,52.0888268 C11.6341423,52.0784578 11.635645,52.0971219 11.5995792,52.0701627 C11.8553461,52.2935391 11.9316854,52.2120689 12.216305,52.5548361 C12.1871518,52.5829804 12.0053198,52.4277427 11.8469307,52.3124994 C12.5141487,52.9349315 13.2192358,53.1408288 13.7292669,53.707565 C13.8957708,53.736598 14.752635,54.3297008 14.6615688,54.0678112 C14.8593298,54.2731161 14.690722,54.3282195 15.3495246,54.71424 C15.5716301,54.7740835 15.7438444,54.8976219 15.9283813,55.0365656 C16.1135193,55.1737317 16.3205973,55.3117866 16.593796,55.4187348 C15.8511403,55.1615853 16.5715554,55.4519153 15.9133539,55.2350566 C16.3416357,55.5369406 17.0942095,55.7825361 17.8945705,56.1967008 C17.9627951,56.2669133 17.9414561,56.3015751 18.0105823,56.3726764 C18.3312677,56.4894009 18.7355056,56.538283 18.9861632,56.7755834 L18.9885676,56.6710053 C19.5235442,56.9799994 20.3389327,57.2540355 20.9204943,57.5908776 L21.715746,57.6622751 C22.1704761,57.929201 22.7604531,58.0879937 23.3287906,58.2073846 C23.8989314,58.3214428 24.4615584,58.3436619 24.8739112,58.3572897 C25.2420833,58.4417224 25.79359,58.564372 25.7848741,58.606144 C25.6962123,58.6052552 25.5441346,58.6070328 25.3686142,58.6011077 C25.6421135,58.6529523 25.942061,58.7341262 26.216462,58.7901185 C26.4908629,58.8446294 26.741821,58.8549983 26.9080244,58.8013762 C27.4799685,58.8265578 27.3098579,58.9580951 27.7321288,59.0363065 C28.3215047,58.9678716 29.1663469,59.0946688 29.9219262,59.1210355 C30.6757022,59.179694 31.332401,59.1533273 31.5019104,58.9892019 C31.2659797,58.9924607 30.9236548,58.991572 30.5284334,58.976463 C30.1329113,58.9518738 29.6850939,58.9278771 29.2345715,58.9240258 C29.4741087,58.8899564 29.2910746,58.8212253 29.6234814,58.822114 C30.0719,58.8230028 30.4109188,58.8668485 30.7514405,58.8849201 C31.0916615,58.8982516 31.4336859,58.9062505 31.882405,58.8677373 L31.7853278,59.0792635 C32.1766421,59.1319969 32.5568362,59.0917062 32.9259099,59.0582294 C33.1104468,59.0383803 33.2919782,59.0134948 33.470504,58.9868319 C33.6484288,58.9551326 33.8227471,58.9142494 33.9946609,58.8786988 C34.3375869,58.8034499 34.6702942,58.7406438 34.9930835,58.6905767 C35.3149711,58.632807 35.629345,58.6031815 35.9431177,58.6236231" id="Fill-84" fill="#FF1B1B"></path>
            <path d="M24.0000439,58.0263137 C24.3322506,58.1076471 24.6625258,58.1991471 25.0000439,58.2727059 L24.9198894,58.1716373 C24.5958913,58.1447255 24.2718933,58.0956863 24.0000439,58.0263137" id="Fill-86" fill="#FF1B1B"></path>
            <path d="M24.0346044,58.1498088 C24.3696908,58.1644608 24.6957614,58.1710392 25.0000439,58.1749265 C24.6454233,58.1477157 24.3028238,58.1276814 24.0000439,58.1240931 L24.0346044,58.1498088 Z" id="Fill-88" fill="#FF1B1B"></path>
            <path d="M38.0000439,57.2493824 C38.2050483,57.2152941 38.616374,57.1656569 39.0000439,57.0496373 C38.7327041,57.0926961 38.1910009,57.1755245 38.0000439,57.2493824" id="Fill-90" fill="#FF1B1B"></path>
            <path d="M39.1782617,57.0974804 C39.0725192,57.1211029 38.9679647,57.1483137 38.86044,57.1650588 L38.8218261,57.2015392 C38.9424201,57.1725343 39.0603409,57.1351569 39.1782617,57.0974804" id="Fill-92" fill="#FF1B1B"></path>
            <path d="M53.4079864,46.2266096 C53.5542079,45.9224377 53.7086342,45.6248721 53.8463578,45.3192641 C53.989942,45.1992038 54.4968822,44.1835743 54.4075083,44.5526591 C54.5721906,43.9655701 55.2857162,42.8766981 54.8737174,43.2124647 C54.2648032,44.5368617 53.3505527,46.0281367 52.26195,47.4616794 C51.1730543,48.8975199 49.9010154,50.2624157 48.6782055,51.4566995 C48.8006916,51.3199802 48.9138008,51.1740696 49.0266169,51.0287335 C48.7388625,51.3685213 48.4449544,51.6023229 48.1926564,51.8197526 C48.0640167,51.9260261 47.9415306,52.0236827 47.8222678,52.1150205 C47.6986095,52.2011881 47.5802258,52.2836219 47.4641863,52.3643322 C47.2324004,52.5269019 47.0132147,52.6860249 46.793443,52.8758809 C46.5651734,53.0551097 46.3363178,53.2642099 46.0901734,53.5379358 L46.1481931,53.2880496 C45.9735479,53.3928869 45.8191216,53.5184045 45.6635232,53.6404753 C45.5067527,53.7602484 45.3558427,53.8869149 45.2008304,54.0109963 C45.0464041,54.1347905 44.8878754,54.2562869 44.7170395,54.3654326 C44.5429803,54.469121 44.3533906,54.5552887 44.14534,54.6213506 L44.2528816,54.6414564 C44.0559661,54.7526126 43.9627829,54.7686973 43.7629371,54.880428 L43.8575855,54.8631945 C43.3758458,55.2205031 43.0280204,55.3580841 42.4838656,55.5864284 C42.4232086,55.555408 42.7194609,55.4422412 42.8765244,55.3468823 C42.7429032,55.3824983 42.5861327,55.4781444 42.4109014,55.591024 C42.2330328,55.6978719 42.033187,55.8153472 41.8230852,55.9086955 C41.4737947,56.0109477 41.7949544,55.8351657 41.8298249,55.7940925 C41.2217897,56.1172212 40.7409292,56.2665785 40.3201395,56.4245525 C39.9022802,56.592005 39.526617,56.7215437 39.1043622,56.9998653 C39.0290538,57.0736823 39.4732857,56.9685577 39.0000439,57.1495098 C39.4463271,57.0386407 39.8448465,56.9159954 40.213477,56.7476813 C40.5815214,56.577931 40.9352074,56.4024362 41.3061821,56.2128673 C41.2364412,56.2453238 41.164356,56.272323 41.092857,56.2996094 C41.5995041,55.8159216 41.5769409,56.1557094 42.498224,55.622906 C42.2913456,55.8354529 41.8649884,56.0152561 41.719939,56.1419226 C42.0202937,56.0606378 42.2684893,55.966715 42.4832795,55.8704945 C42.6942604,55.7662316 42.8712499,55.6570859 43.0376904,55.5574186 C43.3702783,55.356648 43.660084,55.1937911 44.0714967,55.0932621 L43.9967743,55.1443883 C44.1673172,55.0760286 44.428992,54.8749707 44.6593128,54.7190073 C44.5629063,54.7368152 44.3155898,54.8580244 44.1429958,54.9281074 C44.3759538,54.7695589 44.4436435,54.6061276 44.5007842,54.5208216 C44.8336651,54.4648126 44.8275115,54.261457 45.2784831,54.0468995 C45.4841894,54.0377083 44.9775423,54.3459013 44.8486096,54.4912374 L45.3186281,54.1141103 C45.7778045,53.814534 45.8425639,53.9236797 46.096327,53.8110873 C46.4347755,53.4804907 45.8416848,53.9210947 46.0875361,53.6169228 C46.3629834,53.5008837 47.0228847,53.0849811 47.6860093,52.5481566 C48.3544084,52.0187999 49.0333566,51.3843187 49.4271876,50.9359596 C49.1376749,51.2263446 49.3970056,51.1137522 49.0210494,51.4423382 C49.168736,51.336352 49.6018328,50.8586959 49.5493807,50.7998147 C50.1034985,50.1885987 50.8530666,49.4650776 51.4101148,48.9282531 L51.2020642,49.0442922 C51.2832332,48.9018283 51.3954633,48.7590772 51.5293776,48.6102944 C51.6600685,48.4586393 51.8045318,48.2943463 51.9645256,48.1222982 C52.1221752,47.9485267 52.2956484,47.7661385 52.4629679,47.5633573 C52.6241339,47.3565549 52.7855928,47.1336679 52.9370888,46.8923984 L52.9215583,46.9104936 C53.1290228,46.6068962 53.1363485,46.2401092 53.5328168,45.7044336 C53.5117187,45.9092254 53.3077705,46.2062166 53.4079864,46.2266096" id="Fill-94" fill="#FF1B1B"></path>
            <path d="M54.9854598,41.6903904 L54.9308063,42.1495098 C55.1262519,41.7147008 55.2094202,41.0916599 55.1054598,41.153825 C55.0115984,41.4639564 54.8161528,41.8289597 54.8544697,41.9136989 C54.887737,41.8723712 54.9221925,41.8977235 54.9854598,41.6903904" id="Fill-96" fill="#FF1B1B"></path>
            <path d="M57.6750515,34.2246542 C57.6692742,34.065914 57.6277826,34.1027807 57.6072995,34.0317894 C57.5736861,34.4510342 57.4967429,34.8876459 57.4376569,35.3236483 C57.3830351,35.7611741 57.2945373,36.1874265 57.2173316,36.5841247 C57.1774157,36.7821691 57.139338,36.9725964 57.1033611,37.1514457 C57.0574053,37.3278576 57.0146008,37.4929962 56.9754727,37.6441193 C56.8945904,37.9448421 56.8228994,38.1864562 56.7651264,38.3409309 C56.5912821,38.8689477 56.6971117,39.0176334 56.5342969,39.7117028 C56.4749482,39.8012798 56.407984,39.8872006 56.3428581,39.9731214 C56.2816712,40.3591557 55.8045185,41.4054395 56.0907576,41.0916153 C56.1178059,41.0581001 56.1254214,40.7436665 56.2564611,40.4505608 L56.292438,40.5242942 L56.5146015,39.8055454 L56.5043599,40.0617844 C56.7136558,39.5947043 56.701576,39.3939177 56.7097168,39.1733267 C56.7118176,39.0621172 56.7147063,38.9435952 56.7430676,38.7793707 C56.7740549,38.6163649 56.8247376,38.4052191 56.912185,38.1029729 L57.0469011,38.1581207 C57.1503674,37.7471024 57.2207454,37.4351063 57.2877096,37.1359069 C57.3473209,36.8339653 57.4140225,36.548172 57.5298311,36.1904734 C57.5298311,36.1904734 57.4610287,36.1660987 57.4605035,36.3156984 C57.4255771,36.451892 57.3341906,36.6152024 57.3118692,36.5094772 C57.4528879,35.2252354 57.3557242,36.727326 57.5878667,35.8608056 C57.6180663,35.3044532 57.7194317,34.5122756 57.7661753,33.7749411 C57.840755,33.0418721 57.8790953,32.3682165 57.9581393,32.0690171 C57.8982654,32.3240373 57.8580869,32.2567022 57.8391794,32.0510407 C57.8215849,31.8453792 57.8231605,31.5010867 57.82815,31.1939655 C57.88461,30.9151799 57.9092948,31.3914005 57.9497359,31.4946883 C57.9707443,31.2091997 58.0119732,30.975812 57.9967422,30.6894093 C57.9100826,31.0592953 57.8089799,30.810064 57.7748412,30.1495098 C57.7089275,30.8749617 57.7601354,31.5260707 57.7561963,32.1811407 C57.7577719,32.508371 57.7748412,32.8389528 57.7596102,33.176847 C57.7435913,33.5138271 57.7189065,33.8611665 57.6750515,34.2246542" id="Fill-98" fill="#FF1B1B"></path>
            <path d="M56.9669333,33.7076983 C56.9541611,33.9646757 56.9601017,34.0836857 56.9722799,34.1495098 C56.9954482,33.8093308 57.0186165,33.4675719 57.0402997,33.1495098 L56.9669333,33.7076983 Z" id="Fill-100" fill="#FF1B1B"></path>
            <path d="M46.0115258,31.2650809 C46.0127139,30.9113407 45.9393476,31.4546593 45.9951892,31.0339387 C46.0216248,31.0817819 46.0400407,31.1502574 46.0115258,31.2650809" id="Fill-102" fill="#FF1B1B"></path>
            <path d="M45.5074373,28.6715921 L45.8068572,28.445963 C45.9068739,29.1848668 45.9675714,29.9391341 46.0000439,30.7254101 C46.0000439,30.7254101 45.7785517,30.4412098 45.6860898,29.5655417 C45.6536836,29.4271383 45.635548,29.2822287 45.6055202,29.1346575 C45.5701409,28.987382 45.5383292,28.8359662 45.5091933,28.6810017 C45.5086069,28.6778666 45.5080215,28.6747301 45.5074373,28.6715921 Z M37.3079949,17.3204159 C37.2583842,17.2987964 37.2085588,17.2781369 37.15849,17.2585759 C37.2096265,17.2573929 37.266709,17.2378745 37.217951,17.1858253 C37.1358948,17.2230878 36.8106431,17.0867545 36.5305818,16.9669823 C36.4393092,16.8291703 36.0192172,16.8350849 35.6999116,16.6733185 L35.7338044,16.6691782 C35.4605811,16.6484769 35.3791195,16.4943995 35.1493027,16.5053417 L35.0089747,16.3950329 C34.8689441,16.4565456 34.6533979,16.2492361 34.4271488,16.2421385 L34.428338,16.2637271 C34.2229003,16.2365196 34.1313303,16.1614031 33.941947,16.1300554 L33.9270818,16.1143815 C33.4903407,16.0167893 33.239118,15.943743 33.2364422,16.0176765 C33.0922493,15.9330966 33.6708048,16.0549389 33.4445557,15.929252 C31.9734905,15.7311103 30.4539646,15.6625001 28.9710071,15.7813851 C28.8006514,15.7710344 28.6933243,15.7810894 28.6519989,15.7568392 C28.506914,15.7946931 28.0993088,15.8550228 27.9723596,15.9144653 C28.0211176,15.9055933 27.8706813,15.8896237 27.7918954,15.8976085 C27.5186721,15.9123952 27.5139152,16.0153106 27.2207725,16.059375 C27.3304781,16.0096917 27.3643708,15.9753865 27.3200724,15.9567553 C27.0863906,16.0788934 26.7566794,16.1534183 26.4715639,16.2468702 C26.5131866,16.2226201 26.5812694,16.1971869 26.5640257,16.1764856 C26.2658288,16.3264227 25.9762537,16.2995109 25.7229498,16.4509266 L25.8100602,16.3713742 C25.35667,16.4781341 25.7116522,16.5071161 25.3260476,16.6132845 C25.4110769,16.56715 25.3736164,16.5618268 25.3834275,16.5387596 C25.2219909,16.6413793 24.9984175,16.737197 24.7721684,16.8271001 C24.5429462,16.908427 24.3327516,17.0355925 24.1686392,17.1213554 C24.1858829,17.1059772 24.1754772,17.0976966 24.1754772,17.0976966 C23.9953104,17.1893742 23.8074136,17.275137 23.6162465,17.366223 C23.5214062,17.4126532 23.4253767,17.4599707 23.3278606,17.5078796 C23.2333176,17.5605202 23.1444234,17.6258774 23.0531508,17.6897559 C22.9047956,17.7557046 23.0439343,17.5670263 22.6844925,17.8036134 C22.7445482,17.8728152 22.0818553,18.210839 22.3532948,18.1664789 C22.2733197,18.2105433 22.1814525,18.2602266 22.0854229,18.3125715 C21.9956368,18.3740841 21.9016884,18.4382584 21.8113077,18.5003625 C21.6311409,18.6263451 21.4661366,18.7478918 21.3784316,18.8324716 C21.4890291,18.7070805 21.1679397,18.8513986 21.4072702,18.6636076 L21.1890483,18.757651 C21.1938052,18.7079677 21.3876481,18.6257537 21.3005377,18.6322598 C21.1816157,18.7295563 20.8364446,19.0122779 20.7297121,19.0998151 C20.5543021,19.3328534 20.4312178,19.5839315 20.1023985,19.8968179 C20.2367803,19.7273624 19.9427457,19.9065771 20.0402617,19.7974513 C19.9207451,19.9808063 19.8033096,20.1626827 19.7087666,20.3640775 C19.6103587,20.477935 19.6347377,20.3389401 19.5048154,20.5163804 C19.5300863,20.5243652 19.4765714,20.6045091 19.4462463,20.6666132 C19.400164,20.7018056 19.0416142,21.1430405 18.9286383,21.1344643 C18.8566905,21.161376 19.0808584,20.9401671 18.9432062,21.0439697 C18.7514445,21.2486175 18.7853372,21.2917947 18.6129003,21.5118207 L18.6004135,21.5085676 C18.4785185,21.6487455 18.3040004,21.966068 18.4639505,21.8350578 C18.543331,21.7348041 18.3920027,21.8421555 18.5263846,21.7061179 C18.4901134,21.8409725 18.3081627,22.1068373 18.1422665,22.3289334 C18.1871596,22.2452407 18.1606994,22.2408047 18.1630778,22.1958532 C18.0729944,22.3614642 17.9959924,22.5403832 17.9088821,22.7187107 C17.8187986,22.8943766 17.7263368,23.0747743 17.6314965,23.2599037 C17.6647946,23.2868155 17.6454698,23.0889695 17.6969036,23.0475668 C17.5372508,23.2628611 17.3963282,23.5006311 17.2949472,23.7449073 C17.19535,23.9906622 17.0987259,24.2234047 16.9631548,24.4043939 C16.9878311,24.3357836 17.034508,24.3949304 17.0217239,24.3943389 C16.9051803,24.622054 16.8540439,24.5868617 16.8020155,24.746558 C16.7633658,24.7474452 16.7137159,24.9376021 16.6720932,25.1055789 C16.6658498,25.1984394 16.6402816,25.141067 16.6881477,24.998819 C16.6610929,25.1171126 16.5778475,25.4063403 16.4717096,25.7272116 C16.4187893,25.8872036 16.3596256,26.0560677 16.2989754,26.215764 C16.2338656,26.3742773 16.202054,26.5351566 16.1500256,26.6638008 C16.1758911,26.6605477 16.1500256,27.0151327 16.1161328,27.1360878 L16.0742128,27.0745752 C16.0126707,27.1786735 15.9725345,27.487124 15.9205061,27.4971789 C15.918425,27.7757602 16.1262412,26.4703908 16.0852131,26.8388753 C16.0162383,26.9196106 16.0435904,27.3552266 15.9894809,27.2605918 C15.9285333,27.509304 15.9181277,27.7583119 15.8405311,27.9910545 C15.8598559,27.92274 15.7959353,27.7713242 15.7682859,27.9765636 C15.7230956,28.3382461 15.7789889,28.0836192 15.7525288,28.3778744 L15.7471773,28.5638911 C15.7992057,28.584001 15.6909866,28.8829879 15.7715563,28.7581882 C15.721609,28.7966336 15.7162576,29.2801585 15.637769,29.2346155 L15.5717673,29.1775389 C15.564632,29.335165 15.6324175,29.4416292 15.6564992,29.5670204 C15.6487693,29.5868346 15.6327148,29.6270544 15.6214173,29.6181824 C15.7287444,29.6504174 15.5934706,29.9916943 15.6680941,30.180964 C15.6413367,30.3439133 15.627958,30.55211 15.6163631,30.7384224 C15.6214173,30.9250304 15.6214173,31.0897542 15.5913894,31.1684194 C15.6374717,31.420089 15.6883109,31.6466211 15.6793917,31.9355532 C15.6663103,31.8787722 15.659175,31.8006985 15.634796,31.7862075 C15.6122008,31.9689711 15.6428232,32.0115568 15.6686888,32.1748019 C15.6383636,32.1404967 15.6538235,32.5397375 15.6460936,32.7452725 C15.7168522,32.9901402 15.7614479,32.8958011 15.8009895,32.9153195 C15.7653129,33.0365704 15.809314,33.2095748 15.8553963,33.3884938 C15.8621684,33.4158459 15.8690169,33.4433224 15.8757454,33.4707744 L15.2981468,33.9060261 C15.2950481,33.8938843 15.2919109,33.8817584 15.2887329,33.8696528 C15.2587051,33.7217859 15.2331369,33.5745104 15.1900277,33.4390643 C15.1956765,33.4902262 15.2048929,33.5189124 15.2245151,33.5765805 C15.2066768,33.2903101 15.1614864,33.0271069 15.1148095,32.759172 C15.0928089,32.6252046 15.0705111,32.4900542 15.0476186,32.351355 C15.0318614,32.2120643 15.0357264,32.0671547 15.0378075,31.9166262 C15.0511862,31.9766602 15.0642677,32.0863774 15.088944,32.1017556 C15.1228367,31.869013 14.9602109,31.5608583 15.0690245,31.4277781 C15.0609973,31.2961765 15.0062932,31.3358048 15.0140231,31.4174274 C14.9741842,30.7606024 15.0306722,30.0851462 15.0452401,29.3993393 L15.0529701,29.1414593 L15.0847817,28.8856495 L15.148405,28.372847 L15.2129202,27.8591572 L15.2465156,27.6030516 L15.305382,27.352565 C15.6175523,26.4174545 15.5084413,27.3407357 15.6184442,26.5721233 C15.6556073,26.5171168 15.5875245,26.5159339 15.6130927,26.5120893 C15.6350933,26.3630394 15.6951489,26.2595326 15.7486638,26.1669679 C15.8105032,26.076769 15.8675858,25.9981038 15.8741265,25.8913439 C15.7775024,25.9493077 15.8839376,25.7499831 15.8455852,25.7301689 C16.1003756,25.1848356 16.1848103,25.0922709 16.3194894,24.6389109 L16.3382197,24.6853411 C16.4095729,24.4168147 16.5287922,24.1426694 16.6414708,23.8773961 C16.7562305,23.6127143 16.8525573,23.350694 16.9319378,23.1259363 C17.1293483,22.796193 17.3255696,22.4685198 17.520899,22.1420296 C17.7307964,21.8250029 17.9656673,21.5266074 18.1859703,21.2193399 C18.3013247,21.0696985 18.4012192,20.9079321 18.5290603,20.7692329 L18.903962,20.3463334 C19.1605362,20.0715967 19.3873799,19.7684694 19.6739819,19.524489 L20.4984088,18.7585382 C20.7885785,18.5216553 21.0915323,18.3001506 21.3888373,18.0709569 C21.6796016,17.8320039 22.0027721,17.6400726 22.3238616,17.4437053 L22.8054957,17.1479714 C22.8863627,17.1000625 22.9651485,17.0471261 23.0480966,17.0030618 L23.3025897,16.8791493 C23.6406255,16.7191573 23.9771748,16.5597567 24.3134267,16.4006519 C24.6565167,16.2581081 25.0103097,16.1421804 25.3572647,16.0114661 C25.53208,15.9499534 25.7045169,15.8801602 25.8814134,15.8254494 L26.4201301,15.6855673 C26.7804638,15.5998045 27.1351487,15.4844683 27.5014284,15.4241386 C27.8686001,15.3679491 28.2360691,15.3120554 28.6041327,15.255866 L28.8806264,15.214759 L29.1600931,15.1999723 L29.7196212,15.1739477 C30.467046,15.1085905 31.2180385,15.1896216 31.9731932,15.2387134 C32.6671031,15.4179281 32.7131854,15.439221 33.4894488,15.5122673 C33.455556,15.5235051 33.406798,15.5193649 33.4552587,15.5415449 C33.5123413,15.4548949 33.9901104,15.6506707 34.0787073,15.5968471 C34.6180186,15.7476714 35.1475189,15.8523612 35.6514509,16.0558261 C35.9065386,16.1469122 36.1628155,16.238294 36.4229574,16.3308587 C36.6854777,16.4183959 36.9301598,16.559461 37.1926801,16.6768673 C37.0247027,16.6058912 36.9155918,16.6260011 37.1118131,16.7144255 L37.3377649,16.766179 L37.361252,16.8019628 C37.4992016,16.8551949 37.6630166,16.8900915 37.536662,16.8010756 C37.6318828,16.8456889 37.7288051,16.8873155 37.8244092,16.9312698 L37.3079978,17.3204137 Z M24.6363065,44.3991173 C24.73703,44.4352249 24.745897,44.4942695 24.818548,44.4483498 C24.8221714,44.4025235 24.8388631,44.3889711 24.7336736,44.3257459 L24.7467329,44.315905 C25.1257414,44.4382834 25.6432478,44.6228212 25.8258174,44.7375776 C25.7285986,44.678135 25.8142225,44.6929217 25.9007382,44.7091871 C25.8481152,44.77484 26.1225278,44.8901762 26.3499661,44.9093989 L26.3939672,44.871545 L26.5215111,44.9543505 C26.6089188,44.9611524 26.6392439,44.8816 26.8417086,44.9806708 C26.8482493,45.0010764 26.8559792,45.0223693 26.8922505,45.0457323 C27.0090913,45.0554915 27.1497166,45.0643635 27.2900446,45.0838819 C27.4297779,45.106062 27.5704032,45.1317908 27.6914063,45.1652088 L27.8813842,45.2639839 C27.9890087,45.2725602 28.1736351,45.2583649 27.9910898,45.210456 C28.4061276,45.3157373 28.678459,45.3624633 28.8065975,45.4429029 C29.5578872,45.3639419 30.6151039,45.4204271 31.4677747,45.3532955 L31.4451795,45.3899665 C31.6767801,45.4118508 31.5593446,45.3219477 31.7210785,45.3385088 C31.649428,45.376067 31.9024346,45.4035703 31.7252408,45.4541408 C32.0594117,45.4819398 32.1420625,45.3556614 32.3510679,45.3095269 C32.3772307,45.2580692 32.1848744,45.3651249 32.2187671,45.3000634 C32.2523626,45.2778834 32.6724546,45.2678284 32.7119962,45.1900504 C32.7973227,45.2054286 32.7423213,45.2663497 32.7027797,45.3012463 L32.896028,45.2373678 C33.1546833,45.2817279 32.3623655,45.4674488 32.632913,45.5295529 L32.8175394,45.490516 C33.0072201,45.5363548 32.3359053,45.6481422 32.8089176,45.6020077 C33.008112,45.5363548 33.1627106,45.4091892 32.9774895,45.4056404 C33.3928247,45.3181032 33.1439804,45.2211025 33.5872621,45.1374098 C33.6511827,45.1418458 33.564667,45.1687576 33.4727997,45.1944864 C33.3797432,45.2128219 33.2822272,45.2341148 33.3309852,45.2565905 C33.5560451,45.2908957 33.7418607,45.1285378 33.9306494,45.1078364 C33.7207521,45.1341567 33.8774318,45.0200034 34.0049757,44.9741647 C34.2350898,44.9496188 33.8765399,45.0758971 34.1934671,45.0022594 C34.2356844,44.949323 34.5157457,44.8461119 34.2591715,44.8824872 C34.3477684,44.7644893 34.5924504,44.8239318 34.7425894,44.711553 C34.8644845,44.7476325 34.4613389,44.9383809 34.8175103,44.8813042 C34.7488328,44.8472948 35.2099529,44.6618697 35.0033259,44.6346622 C35.1391943,44.6042016 35.1689248,44.6459 35.0853821,44.7174676 C35.2866576,44.6849369 35.5019064,44.4439138 35.6059632,44.5382529 L35.6478832,44.454856 C35.7138849,44.4530815 35.8033737,44.4371119 35.9121874,44.4344503 C35.9954328,44.4048769 36.1205982,44.3359709 36.2273307,44.2868791 C36.3313874,44.2315769 36.4152275,44.1898784 36.4280116,44.2386745 C36.4749858,44.2049608 36.8391844,44.0352096 36.6712071,44.04142 C36.4300927,44.1118046 36.4324712,44.210284 36.2716291,44.186921 C36.4592286,44.1789362 36.5909347,44.0230845 36.7092621,43.9388003 L36.7464253,43.9627548 C36.8168865,43.91248 36.9982426,43.834702 37.0276758,43.7755552 C36.9786205,43.8228726 37.0205405,43.8311532 37.0862449,43.8098603 L37.140949,43.720253 C37.4394432,43.544587 37.2628441,43.7773296 37.557176,43.61024 C37.4905797,43.6667251 37.4174427,43.7119724 37.3472787,43.7637258 C37.3915771,43.7267591 37.5289321,43.7377013 37.6567732,43.6318285 C37.6856118,43.5534591 37.7560731,43.4381228 37.7816413,43.3751315 C37.932375,43.2574294 37.8845089,43.3816377 38.0171069,43.2390939 L37.8390212,43.4200831 C37.8155341,43.4540925 38.0245395,43.4085494 38.243356,43.2742863 C38.3744675,43.1743282 38.5498775,42.9806225 38.3147092,43.0891568 C38.4232255,43.0226167 38.5938786,42.9566681 38.5275796,43.0409522 C38.7660182,42.8765242 38.4645509,43.0137447 38.6601776,42.8581887 C38.7663155,42.8339385 39.0454849,42.6789739 39.2315979,42.6062234 L39.0716478,42.8336428 L39.2128677,42.7298402 C39.0710532,42.9220672 39.3368439,42.7041113 39.2770856,42.8401489 C39.380845,42.7777491 39.4831179,42.6701019 39.5648768,42.5852263 C39.2125704,42.7002668 39.7813149,42.2235437 39.6317704,42.2007722 C39.9941853,41.8985322 40.0328349,42.2167419 40.2974364,41.7613117 C40.2183532,41.7950253 40.3372752,41.5767737 40.1362971,41.8006443 C40.3628435,41.6113746 40.2124071,41.5859415 40.4996038,41.3869126 C40.3381672,41.5918562 40.7799624,41.2804484 40.546578,41.5776609 C40.5409292,41.5347795 40.3732492,41.6977289 40.3372752,41.7441591 C40.4559,41.6924057 40.3904928,41.8417513 40.6176339,41.636512 C40.7490427,41.5040232 40.9372368,41.3310189 40.8706404,41.3156407 C40.8218824,41.2771953 40.6646081,41.5108251 40.7097984,41.3860254 C40.9717242,41.1275539 41.0769701,41.1438193 41.1004572,40.9539582 C40.952102,41.1340601 40.8623159,41.126371 40.8346665,41.0926573 C40.8971006,41.0284831 40.945264,40.9504093 41.0011574,40.8803204 L40.9955086,40.9471563 C41.3070842,40.6493522 41.0273202,40.8019509 41.3154088,40.5023725 L41.5077651,40.4121737 C41.4923052,40.5319459 41.074889,40.8401006 41.2077843,40.8628721 C41.3956811,40.6638432 41.4135194,40.5588577 41.6091461,40.388515 C41.5779291,40.437311 41.5270899,40.4967536 41.4964675,40.5452539 C41.5648477,40.4763479 41.7450145,40.501781 41.942425,40.1560681 C42.0420222,39.9768534 41.9445062,40.0886408 41.9156676,40.0587717 C42.1683768,39.7003422 42.2120807,39.5699235 42.3755984,39.3419127 C42.4080047,39.4368433 42.681228,38.9488824 42.5634952,39.2463907 C42.4371406,39.3333364 42.062239,39.8402243 42.03013,40.015003 C42.1166458,39.9818809 42.0619417,40.0487167 41.98821,40.1415772 C41.9064511,40.2279314 41.8020971,40.3358743 41.8080432,40.4035974 C42.0509414,40.1448302 42.110997,40.2158064 42.1942424,40.2093002 C42.2575684,40.1324094 42.2947315,40.0386618 42.3223808,39.9851339 C42.3003803,39.915045 42.2236756,40.0191433 42.1710526,39.9866126 C42.4216807,39.6799366 42.6247401,39.3543335 42.7073908,39.1479113 C42.810853,39.0597826 42.8355293,39.126027 42.7454459,39.2549669 C42.8884496,39.0668802 43.0064797,38.8527689 43.1343209,38.6490082 C43.2612701,38.4443604 43.3908951,38.2450357 43.5157632,38.0584276 C43.2817841,38.2577523 43.7536072,37.6207415 43.5793865,37.7499772 C43.4402477,37.9460487 43.2704865,38.0832693 43.3014063,37.9507805 C43.3840571,37.8277552 43.336191,37.9759179 43.3867328,37.9333322 C43.4423288,37.7493857 43.6117927,37.721291 43.6156577,37.5136858 C43.458086,37.9120394 43.6846324,37.6441044 43.7179306,37.7505686 C43.8154466,37.4503987 43.7601479,37.7878311 43.8945298,37.510137 C43.9926404,37.2105586 44.1276169,36.8541992 44.2625934,36.5386512 C44.4831937,36.1624777 44.6428465,35.5121588 44.773958,35.1516592 C44.8619603,34.9680085 44.9101237,35.1253389 44.9796931,34.9156636 C45.0427218,34.6648812 44.8420409,35.0756556 44.9758281,34.7160432 L44.9832608,34.7565587 C44.9924772,34.6400396 45.2160506,34.0899745 45.1232914,33.9533455 L45.1851309,34.0882001 C45.2112937,34.0204771 45.2071314,33.9518668 45.2121856,33.89272 C45.2425107,33.8965646 45.2906741,33.8211524 45.2808631,33.9382631 C45.4161369,33.723856 45.3566759,33.4446832 45.4009743,33.1921265 L45.3212966,33.3464995 C45.3424052,32.9046731 45.4500296,32.6228387 45.4833278,32.1987563 L45.5368427,32.2165003 L45.5175179,31.9606905 C45.5665732,32.0266392 45.6120609,31.7959668 45.575195,31.659042 C45.6055202,31.8814338 45.6465482,32.1067831 45.6682515,32.3318366 C45.6123582,32.511347 45.627818,32.1254143 45.5597352,32.2348358 C45.5047338,32.3276963 45.4547865,32.718065 45.498193,32.7890412 C45.5273289,32.6399913 45.516626,32.6308235 45.5148421,32.51253 C45.5974929,32.4717187 45.5597352,32.6994338 45.5921414,32.8195018 C45.6010606,32.7399493 45.6411968,32.6302321 45.6200881,32.6107136 C45.6331695,32.7701142 45.6144393,32.9283318 45.5763843,33.1879862 C45.5746004,33.00818 45.515734,33.2758191 45.5047338,33.2060259 C45.5665732,33.2367823 45.5505187,33.4890433 45.4803547,33.8051828 C45.3474594,34.012788 45.376298,34.4055226 45.2612409,34.7660222 C45.2344835,34.6004112 45.2309158,34.3999037 45.2609436,34.1742587 C45.169671,34.3925103 45.1976177,34.4265197 45.1060477,34.6450671 C45.1262645,34.7675009 45.1800767,34.8665717 45.1322106,35.1732478 L45.0804795,35.1750222 C45.0210185,35.4473931 45.0816687,35.4677987 44.9487734,35.7984292 C44.8316352,36.0805594 44.7195512,36.3683084 44.6151971,36.6397922 C44.4861668,36.9006294 44.3654609,37.1454971 44.2622961,37.3536938 L44.2102677,37.3477791 C44.2016459,37.486774 44.1163193,37.6858029 44.0193979,37.8907465 C43.9224765,38.0962816 43.7803647,38.2893958 43.7140656,38.4523452 C43.538953,38.693664 43.3813813,38.9740198 43.237783,39.2224362 C43.0784275,39.4599105 42.9250181,39.6586437 42.8007446,39.7559402 C42.6509029,39.9709387 42.505818,40.1791354 42.362517,40.3843747 C42.2088103,40.5813334 42.0420222,40.7638013 41.8808829,40.9524795 C41.7158786,41.1384961 41.5502797,41.3253999 41.3808159,41.516444 C41.1958921,41.6929971 40.9984816,41.8651143 40.7942331,42.0449205 L40.8810461,41.8695503 C40.7728271,42.0390058 40.7594484,41.9239653 40.6256611,42.05882 C40.826342,41.9553131 40.4796844,42.2915625 40.4074392,42.4160665 C40.003699,42.687846 39.5289029,43.0876782 39.2146515,43.3928755 L39.1730288,43.3621192 C38.8620478,43.6797374 38.3625753,43.8716687 37.8946172,44.1407866 C37.8330751,44.1585306 37.7215857,44.1579391 37.5791766,44.2327598 C37.351441,44.43031 37.2096265,44.4921184 36.8403736,44.7242695 C36.5623934,44.8783469 36.0650022,45.0208906 35.7543184,45.1039918 C35.4828789,45.224947 35.2135206,45.3657163 34.9239455,45.4464517 C34.6352623,45.5307358 34.3424169,45.6096968 34.0480849,45.6871791 L33.6051004,45.8025153 L33.1511157,45.8764488 C32.8478646,45.927315 32.5437215,45.98173 32.2386866,46.0447213 L32.143549,46.0003613 C31.8486224,46.0603952 31.530506,46.082871 31.2070382,46.1097828 C30.883273,46.125161 30.5532644,46.1712955 30.2286074,46.1372861 C29.9042476,46.1192463 29.5855366,46.1009108 29.2834747,46.0837582 C29.1327411,46.0734075 28.9849805,46.0763649 28.8449498,46.059508 C28.7046218,46.041764 28.5699427,46.0266816 28.4415069,46.015148 L28.5524017,45.931751 C28.2399341,45.8536773 27.8251936,45.8480583 27.8938711,45.9290894 C27.7365967,45.8891653 27.5344293,45.8731957 27.348911,45.8471711 C27.1663657,45.8063598 26.9992803,45.762887 26.9091968,45.6978255 C26.5940535,45.5984589 26.5063485,45.6419318 26.235801,45.5866296 C26.0785266,45.5339889 25.9426582,45.500571 25.8252228,45.455028 C25.70749,45.409485 25.6025413,45.3692651 25.4987818,45.3296368 C25.2897764,45.2536332 25.0831494,45.1853187 24.786439,45.0868393 L24.92974,45.1459861 C25.0019852,45.1489434 25.0224992,45.1113852 24.8791982,45.0528299 C24.765925,45.023848 24.5649468,44.9508017 24.4210512,44.8928378 C24.2789394,44.8298465 24.1838018,44.8020475 24.2646687,44.9064416 C24.2098816,44.8730217 24.1526113,44.8403536 24.0933432,44.8082695 L24.6363065,44.3991173 Z" id="Combined-Shape" fill="#FF1B1B"></path>
            <path d="M46.060935,31.0531968 C46.0169746,31.1276526 45.9828162,31.3725497 45.9391528,31.1734026 C45.9780637,31.1512752 46.0264796,31.025687 46.060935,31.0531968" id="Fill-106" fill="#FF1B1B"></path>
            <path d="M43.0290043,37.1602745 C43.035836,37.1734314 42.9749449,37.2356275 42.9603904,37.2508775 C42.9918756,37.1779167 42.9936578,37.0953873 43.0396974,37.0481422 C43.0079152,37.122 43.0298954,37.1193088 43.0290043,37.1602745" id="Fill-108" fill="#FF1B1B"></path>
            <path d="M42.8791901,39.1495098 C42.8622594,39.0725009 43.0193882,38.4837732 43.1221604,38.1495098 L42.8791901,39.1495098 Z" id="Fill-110" fill="#FF1B1B"></path>
            <path d="M42.0256772,40.1749404 C41.9193406,40.2565727 41.9341921,40.2215874 42.0387465,40.0807492 C42.0610238,40.0822443 42.033697,40.1348717 42.0256772,40.1749404" id="Fill-112" fill="#FF1B1B"></path>
            <path d="M42.0995489,40.0754857 C42.0151924,40.1699759 41.9572716,40.202868 41.900539,40.2351621 C41.9269746,40.2513092 42.0817271,40.0061131 42.0995489,40.0754857" id="Fill-114" fill="#FF1B1B"></path>
            <path d="M39.1306852,42.0631607 C39.0692,42.1124989 38.9506852,42.2392832 38.8684079,42.251543 C38.9509822,42.2240332 39.1473188,41.9848175 39.1306852,42.0631607" id="Fill-116" fill="#FF1B1B"></path>
            <path d="M38.0740613,43.1189694 C38.0306949,43.142891 38.0101999,43.1476753 37.9662395,43.1862488 C37.8806949,43.21944 37.9487147,43.1470773 38.0122791,43.1043175 L38.0740613,43.1189694 Z" id="Fill-118" fill="#FF1B1B"></path>
            <polygon id="Fill-120" fill="#FF1B1B" points="15.9707865 34.0705686 16.0293013 34.228451 15.9889053 34.2135"></polygon>
            <path d="M16.9437568,22.1989573 C17.0144499,22.0449622 17.0379152,22.1224083 17.056331,22.1017759 C16.9719746,22.2261681 17.0480142,22.0288152 16.9437568,22.1989573" id="Fill-122" fill="#FF1B1B"></path>
            <polygon id="Fill-124" fill="#FF1B1B" points="23.0328657 18.1580319 22.9897964 18.1855417 22.9672221 18.1134779"></polygon>
            <path d="M21.6154714,30.4054142 L13.5164714,30.4054142 L13.5164714,34.5394142 C13.5164714,35.111417 13.8068018,35.3974142 14.3874714,35.3974142 L21.1344714,35.3974142 C21.4638064,35.3974142 21.7194705,35.3194149 21.9014714,35.1634142 C22.1701394,34.8774127 22.343471,33.9977549 22.4214714,32.5244142 L23.1104714,32.7454142 C22.9891375,34.3227554 22.7811395,35.2934123 22.4864714,35.6574142 C22.2091367,35.9347489 21.8234739,36.0734142 21.3294714,36.0734142 L14.1794714,36.0734142 C13.2608001,36.0734142 12.8014714,35.6054188 12.8014714,34.6694142 L12.8014714,27.7664142 L13.5164714,27.7664142 L13.5164714,29.7164142 L20.9004714,29.7164142 L20.9004714,26.0764142 L12.0474714,26.0764142 L12.0474714,25.4004142 L21.6154714,25.4004142 L21.6154714,30.4054142 Z M29.4154714,30.5614142 C28.7654682,30.8560823 28.1024748,31.1290796 27.4264714,31.3804142 L27.4264714,35.3844142 C27.4264714,36.0430841 27.0928081,36.3724142 26.4254714,36.3724142 L25.0474714,36.3724142 L24.8914714,35.6964142 C25.4981411,35.731081 25.9271368,35.7484142 26.1784714,35.7484142 C26.5424732,35.7484142 26.7244714,35.5707493 26.7244714,35.2154142 L26.7244714,31.6274142 C25.9531342,31.8787487 25.2294748,32.0954132 24.5534714,32.2774142 L24.3844714,31.6014142 C25.233809,31.4107465 26.0138012,31.1984153 26.7244714,30.9644142 L26.7244714,27.7924142 L24.5794714,27.7924142 L24.5794714,27.1034142 L26.7244714,27.1034142 L26.7244714,24.6724142 L27.4264714,24.6724142 L27.4264714,27.1034142 L29.2204714,27.1034142 L29.2204714,27.7924142 L27.4264714,27.7924142 L27.4264714,30.7174142 C28.1891419,30.422746 28.8521353,30.1410822 29.4154714,29.8724142 L29.4154714,30.5614142 Z M29.6754714,25.7254142 L36.1494714,25.7254142 L36.1494714,26.4274142 L33.9394714,26.4274142 L33.9394714,35.2544142 C33.9394714,35.9997512 33.5841416,36.3724142 32.8734714,36.3724142 L30.7674714,36.3724142 L30.6114714,35.6834142 C31.5474761,35.718081 32.219136,35.7354142 32.6264714,35.7354142 C33.0338068,35.7354142 33.2374714,35.5144164 33.2374714,35.0724142 L33.2374714,26.4274142 L29.6754714,26.4274142 L29.6754714,25.7254142 Z M39.1134714,30.0804142 L39.1134714,34.1494142 C40.1794767,33.9414131 41.4404641,33.6380828 42.8964714,33.2394142 L43.0784714,33.8764142 C41.5877973,34.2924162 40.0234796,34.6607459 38.3854714,34.9814142 L38.0864714,34.3964142 C38.3031392,34.2750802 38.4114714,34.1104152 38.4114714,33.9024142 L38.4114714,25.7514142 C40.0234795,25.4654127 41.4881315,25.1014164 42.8054714,24.6594142 L43.2344714,25.2184142 C42.0297987,25.6344162 40.6561458,25.9854127 39.1134714,26.2714142 L39.1134714,29.3914142 L42.9744714,29.3914142 L42.9744714,30.0804142 L39.1134714,30.0804142 Z M46.2764714,34.7474142 L46.0814714,34.0584142 L47.3294714,34.0844142 C47.7454735,34.0844142 47.9534714,33.8850828 47.9534714,33.4864142 L47.9534714,26.1154142 L44.6904714,26.1154142 L44.6904714,36.5154142 L43.9884714,36.5154142 L43.9884714,25.4394142 L48.6684714,25.4394142 L48.6684714,33.6424142 C48.6684714,34.3790845 48.3001418,34.7474142 47.5634714,34.7474142 L46.2764714,34.7474142 Z" id="" fill="#E60012" fill-rule="nonzero" transform="translate(30.357971, 30.587414) rotate(-38.000000) translate(-30.357971, -30.587414) "></path>
            <path d="M52.2838657,49.6191576 C50.2331726,52.0077734 48.6514895,53.2430985 47.0249548,54.4078078 C46.6129746,54.6935763 46.2030736,54.9844532 45.7554499,55.254596 C45.5344598,55.3943251 45.3096083,55.5361576 45.0782221,55.6824975 C44.8405984,55.8180197 44.597034,55.9571477 44.3448558,56.1010837 C43.8482221,56.4027783 43.2880241,56.6666108 42.6921825,56.984532 C42.0791132,57.2660935 41.4238657,57.5948325 40.6714895,57.8869113 C39.2377271,58.4437241 37.7207964,58.935931 36.1735687,59.2664729 C34.6287172,59.6036256 33.0657469,59.8127684 31.5630736,59.9047192 C31.207232,59.9449852 30.7812914,59.971729 30.316737,59.9915615 C29.8518855,60.0032807 29.3484201,59.9783399 28.836935,59.9678226 C28.3263409,59.9440837 27.8089152,59.8902955 27.3119845,59.8611477 C26.816539,59.8136699 26.3439647,59.7568768 25.9192122,59.7313349 C25.7044598,59.6856601 25.4944598,59.6114384 25.2823805,59.5528423 C24.9924796,59.5182857 24.677331,59.4771182 24.3633706,59.4263349 C24.0523805,59.36233 23.7431726,59.2842019 23.4615885,59.1997635 L23.5025786,59.1880443 C23.2875291,59.1495812 23.0647568,59.1129211 22.8500043,59.0582315 C22.6361429,58.9996354 22.4255489,58.9416403 22.2280241,58.8875517 C21.8338657,58.7772709 21.4925786,58.6802118 21.2855489,58.6162068 L21.3259449,58.608394 L20.3196083,58.2736453 L20.5019845,58.304596 C19.0515885,57.8415369 17.6136677,57.187665 16.4083211,56.5043448 L16.4704003,56.6332561 C15.197331,55.866399 14.3323805,55.3387339 13.52743,54.7813201 C13.1234697,54.504266 12.7260439,54.2329211 12.3203013,53.8966699 C12.1153508,53.7316995 11.8994102,53.5616206 11.6775291,53.3705073 C11.4636677,53.1706798 11.23644,52.9582315 10.9904994,52.7286551 L11.0314895,52.7370689 C10.6884201,52.4852561 10.3919845,52.2130098 10.1050538,51.9542857 C9.81663797,51.6967635 9.54901421,51.4410443 9.30752906,51.1748078 C9.06337064,50.9109753 8.82069738,50.6603645 8.60030134,50.3962315 C8.38376668,50.1290935 8.17020233,49.865862 7.95634094,49.6020295 C7.12941025,48.5223596 6.34198451,47.4078325 5.34099441,45.9615615 C5.59346965,46.3203497 5.27980629,45.7791625 5.32109342,45.7956896 C4.45881619,44.4269458 3.75663797,42.8430492 3.59327163,42.8893251 C3.34911322,42.3484384 3.26772708,42.1203645 3.2499053,42.0058768 C3.22851916,41.8931921 3.26119243,41.8976995 3.2629746,41.813261 C3.20267757,41.8466157 2.77643995,40.9063743 2.49723203,40.0217241 L2.65911322,40.4168719 C2.35822213,39.5848078 2.11079639,38.7341133 1.88624193,37.8777093 C1.87733104,38.0592068 1.87554886,38.2398029 1.88119243,38.4194975 C1.58000431,37.03633 1.95812312,38.0300591 1.61950926,36.7226157 L1.51109342,36.7625812 C1.42881619,36.2799901 1.36941025,35.8448768 1.31772708,35.4362068 C1.2699053,35.0266354 1.26040035,34.6386995 1.23723203,34.2561724 C1.2099053,33.8739458 1.21257856,33.4914187 1.21287559,33.0878571 C1.21257856,32.6848965 1.19743005,32.2612019 1.21643995,31.790931 C1.0979251,27.8929408 1.6949548,23.8179605 3.10079639,20.0858423 C4.48881619,16.3510197 6.67168748,12.9909113 9.24040035,10.4460394 L9.52079639,10.2744581 C9.69069738,10.2552266 10.8107964,8.74224626 11.1131726,8.66261572 L11.7093112,8.0655369 C11.9086182,7.93602458 12.3128756,7.64574872 12.0033706,7.92821177 C12.6176281,7.45493591 12.6063409,7.40926104 13.0394102,7.05407877 L13.7603013,6.63218714 C15.0357469,5.7923103 16.2396083,5.05490143 17.5114895,4.39441867 C18.7887172,3.74956153 20.1262419,3.16660586 21.6636677,2.69843838 C23.5263409,2.20382754 26.2489152,1.61516251 29.0653508,1.50067483 L30.1206974,1.46161079 C30.4723805,1.4652167 30.8231726,1.4691231 31.1712914,1.47242852 C31.3456479,1.47483246 31.5191132,1.4775369 31.6919845,1.47994084 C31.8642617,1.49045808 32.0359449,1.50097532 32.20644,1.51119207 C32.54743,1.53402951 32.8854499,1.54755168 33.2163409,1.57609847 C33.8754499,1.65663049 34.5179251,1.69990143 35.1152518,1.81138419 C35.4149548,1.8597635 35.7060439,1.90603936 35.987034,1.95111325 C36.2656479,2.00970931 36.5338657,2.06560094 36.7902023,2.11968961 C39.6892122,2.68251227 42.6704994,3.99416251 45.3547568,5.74513296 C48.0443607,7.50662064 50.4104994,9.72245315 52.4187172,11.9821576 C52.5384201,12.1384137 52.8731726,12.5236453 52.8850538,12.5092216 C54.0235687,13.9666108 55.0251528,15.5324778 55.8713904,17.1800788 C55.8713904,17.1800788 55.9186182,17.2738325 56.0053508,17.4457142 C56.0894102,17.6184975 56.2248558,17.8630985 56.3698063,18.1801182 C56.5126776,18.4980394 56.6837667,18.8787635 56.8756479,19.306064 C57.047331,19.7417783 57.23743,20.2252709 57.4397073,20.7388128 C57.8020835,21.7812216 58.1908954,22.9567487 58.4608954,24.1497044 C58.7614895,25.3354482 58.9501033,26.5320098 59.1027766,27.5714137 C59.2337667,28.6138226 59.3243607,29.5017783 59.3745588,30.0862364 C59.4390142,30.6691921 59.4999053,30.9495517 59.5691132,30.7698571 C59.6023805,30.6803103 59.6359449,30.4762758 59.6695093,30.1370197 C59.697133,29.7983645 59.7532716,29.3235862 59.7437667,28.6961576 C59.7434697,28.3824433 59.746737,28.029064 59.7378261,27.6354187 C59.7134697,27.2414729 59.68644,26.8075615 59.657034,26.3309802 C59.6175291,25.8540985 59.5450538,25.3375517 59.4794102,24.7720246 C59.3879251,24.2122068 59.2913904,23.6037093 59.1547568,22.9546453 L59.2195093,23.0844581 C59.0228756,22.3209064 58.8508954,21.6249655 58.6346578,20.9966354 C58.4439647,20.3595911 58.2155489,19.7907586 58.0019845,19.2498719 C57.7934697,18.7065812 57.5383211,18.2164778 57.3087172,17.7272758 C57.0624796,17.2458867 56.7909944,16.7879359 56.5186182,16.3200689 C56.5082221,16.1310591 56.1942617,15.563729 55.8381231,14.9663497 C55.4579251,14.384596 55.0524796,13.7643793 54.8487172,13.4530689 L54.9001033,13.5020492 C53.7197073,11.9965812 52.5904003,10.2804679 51.1893112,9.05956645 C51.246638,9.10313788 51.3188162,9.0860098 51.6116875,9.39491621 C51.3805984,9.14941374 51.1007964,8.90962064 50.8388162,8.65750734 C50.5753508,8.4068965 50.3130736,8.16109355 50.0683211,7.95465512 C49.5859449,7.53246301 49.2330736,7.19831522 49.2197073,7.13461079 C47.9778261,6.11023148 46.3913904,5.00532015 44.8334697,4.14440882 C43.277034,3.28049256 41.7630736,2.65216251 40.7778261,2.36549256 L40.9180241,2.39163542 C40.3602023,2.21584724 39.9954499,2.11908862 39.6250538,1.98296547 C39.4385192,1.91896054 39.2502023,1.84714281 39.027133,1.77742852 C38.8025786,1.71372409 38.5459449,1.64491128 38.2293112,1.56798517 C38.1645588,1.53553197 38.0775291,1.50398025 38.0932716,1.50277828 C37.7828756,1.43396547 37.4008954,1.35613788 36.98743,1.27049749 C36.5748558,1.18095069 36.1331726,1.07217237 35.6920835,1.00035463 C34.8158459,0.820359558 33.9583211,0.712182218 33.4483211,0.669512267 L33.3895093,0.595290592 C32.5506974,0.524374336 31.7109944,0.452556602 30.8692122,0.451655124 C31.1831726,0.466679755 31.4980241,0.471487636 31.8113904,0.495226553 C31.6435687,0.570950691 31.1701033,0.538196996 30.5062419,0.48230537 C30.1744598,0.447448228 29.7948558,0.446246257 29.3837667,0.44654675 C28.9726776,0.447147735 28.5301033,0.459167439 28.0762419,0.532487636 C26.3555489,0.627443301 24.6811924,1.28311818 22.9634697,1.63439404 C22.16743,1.91775857 23.6481231,1.31527089 22.4460439,1.69539404 C22.3806974,1.61125611 22.9994102,1.48204429 22.66644,1.49196054 C21.4854499,1.87358616 20.6730736,1.95411818 19.2642617,2.57974379 L19.1796083,2.53436941 C17.3695093,3.39648271 15.6993112,4.04825118 14.6142617,4.8529704 C13.7635687,5.44614281 13.4344598,5.57565512 13.1225786,5.75655168 C12.9645588,5.84309355 12.8050538,5.93384232 12.5804994,6.089197 C12.4685192,6.16672409 12.3396083,6.26077828 12.187232,6.37857138 C12.0387172,6.50177335 11.8691132,6.65292113 11.6677271,6.83532015 C11.4289152,6.98466498 11.1856479,7.13070439 10.9477271,7.2845566 C10.2416875,7.89034971 10.51644,7.8053103 9.73049936,8.46849749 C9.73376668,8.37834971 8.75861817,9.33632015 9.15247955,8.87416251 L8.82604391,9.16894576 L8.51653896,9.4847635 C8.31366767,9.70051719 8.10931124,9.91747286 7.90257856,10.137133 C7.69911322,10.360399 7.51079639,10.601394 7.31208352,10.8390837 C7.11782609,11.0809802 6.90901421,11.316266 6.72307361,11.5776945 C5.93950926,12.5927586 5.17020233,13.7274187 4.29515282,15.0027093 C4.18168748,15.3266403 3.91525183,15.8140394 3.66247955,16.2849113 C3.42842015,16.7656995 3.20059837,17.2260541 3.12901421,17.4688522 C3.07703401,17.4892857 2.76574688,18.2023546 2.53020233,18.6993694 C2.40901421,18.9460738 2.33148946,19.1501083 2.3029746,19.1816601 C2.28158847,19.2159162 2.29881619,19.0743842 2.45267757,18.6642118 C2.50554886,18.5232807 2.61544985,18.2813842 2.62673698,18.3066256 L2.646935,18.0857635 C1.80129144,19.6486256 1.49772708,21.0918916 1.03079639,22.7698423 C1.19386569,22.2773349 1.37416272,21.6129458 1.29663797,22.069995 C1.15228153,22.5904482 0.984459753,23.1051921 0.872776584,23.6340591 L0.889410248,23.2902955 L0.603073614,24.4667241 C0.512776584,24.8600689 0.44683599,25.2588226 0.367826089,25.6551724 L0.499410248,25.3396551 C0.438519159,25.6290295 0.380301337,25.8709261 0.325647872,26.0914876 C0.281687475,26.3144532 0.241885495,26.5163842 0.201192426,26.7219211 C0.129905297,27.1356995 0.0514894557,27.5705123 0.0648557923,28.2427142 C0.0785191587,28.8494088 0.249311238,27.134798 0.178915198,28.3806403 C0.138222129,28.7733842 0.0803013369,29.2148078 0.0630736141,29.6904876 C0.0434696537,30.1655665 -0.00791648491,30.6724975 0.0027765844,31.1944532 C-0.0120749008,32.237463 0.0324795547,33.3384679 0.140598367,34.3454187 C0.200598367,34.147995 0.265053812,34.6882807 0.352083515,35.2399852 L0.287925099,35.3148078 C0.513667674,36.3656305 0.515746881,36.5639556 0.505647872,36.7652857 C0.491984505,36.9663152 0.500004307,37.1634384 0.774459753,38.1962315 L0.682974604,38.0249507 C0.77743005,38.1956305 0.859113218,38.3687142 0.963073614,38.5348867 C1.62574688,40.3375418 1.0759449,39.5890147 1.96139045,41.5386108 C1.65634094,40.7543251 1.96554886,41.1158177 2.31337064,42.0861083 L2.1529746,41.8682512 C2.38198451,42.3917093 2.45832114,42.567197 2.61129144,42.9160689 C2.43752906,42.6203842 2.44346965,42.7925665 2.79842015,43.5573201 L2.48743005,43.0774334 C2.74554886,43.5456009 2.99119243,44.0170738 3.27931124,44.4657093 C3.40287559,44.7472709 3.54842015,45.068798 3.71861817,45.3900246 C3.89802411,45.7058423 4.08247955,46.0315763 4.25624193,46.3371773 C4.61148946,46.9441724 4.95426173,47.4517044 5.04337064,47.6960049 C5.04337064,47.6960049 5.12624193,47.8393399 5.27475678,48.0493842 C5.42148946,48.260931 5.62109342,48.5479014 5.83139045,48.850197 C6.04020233,49.1542955 6.29356866,49.4478768 6.50238054,49.7069014 C6.71653896,49.9617192 6.89505381,50.1753694 7.01861817,50.2688226 C6.62148946,49.9094334 7.54881619,51.0326748 7.21911322,50.7703448 C7.69703401,51.2685615 9.14950926,52.6679556 9.69010332,53.2752512 L9.57337064,53.1757881 C10.6429746,54.2245073 11.6519845,55.0226157 12.6800043,55.7143497 C13.6952518,56.4262167 14.7312914,57.0284039 15.8751528,57.7270492 C15.807133,57.5957339 17.0392122,58.2865665 16.7778261,58.0278423 C17.087034,58.1804926 17.3980241,58.3100049 17.696836,58.4446256 C17.9947568,58.5810492 18.2840637,58.7135665 18.5641627,58.8415763 C19.1341627,59.0723546 19.6506974,59.3271724 20.1396083,59.4993546 C20.627331,59.6748423 21.0592122,59.8476256 21.4462419,59.9347684 C21.8317865,60.0267192 22.1591132,60.0763004 22.4187172,60.0627783 C23.0216875,60.2214384 23.3813904,60.3061773 23.6617865,60.4026354 C23.9430736,60.4945862 24.1509944,60.5736157 24.4685192,60.6349162 L24.1714895,60.5994581 C24.7498063,60.6962167 25.2253508,60.7758472 25.6403013,60.845261 C26.0579251,60.8957438 26.4143607,60.9390147 26.7520835,60.9798817 C27.0892122,61.0285615 27.4105984,61.0438867 27.7542617,61.0724334 C28.0985192,61.0931674 28.4653508,61.1430492 28.9002023,61.1493596 C29.7704994,61.1340344 29.906836,61.0096305 31.4543607,60.9964088 C30.9550538,61.0640197 31.5892122,61.0631182 32.167232,61.0054236 C31.7986182,61.0435862 31.6842617,61.0754384 32.4485192,61.0586108 C32.5542617,61.031266 32.7188162,61.0066256 32.8726776,60.9846896 C32.8795093,60.989197 32.9101033,60.9906995 32.8952518,60.9985123 C33.8588162,60.886729 33.6859449,60.8647931 33.2401033,60.9206847 C33.2614895,60.908665 33.2225786,60.9020541 33.0823805,60.8945418 C33.5852518,60.8816206 34.2811924,60.7911724 34.8648558,60.7064334 C35.4461429,60.603665 35.9193112,60.5234334 35.9900043,60.5655024 C37.4160439,60.2535911 38.6204994,59.9005123 39.7293112,59.4705073 C40.006737,59.3638325 40.2838657,59.2673743 40.5526776,59.1540886 C40.8203013,59.038399 41.08644,58.9227093 41.3531726,58.8070197 C41.8919845,58.5891625 42.406737,58.3082019 42.9550538,58.0539852 C43.2262419,57.9905812 42.7322815,58.2706403 42.0990142,58.5837536 C42.617331,58.3352463 43.1439647,58.1053694 43.6456479,57.8241083 C43.656935,57.8628719 43.4418855,57.9872758 43.1656479,58.1336157 C42.8831726,58.2667339 42.5383211,58.4196847 42.2998063,58.5374778 C44.2352518,57.8081822 46.0183211,56.5007389 48.0143607,55.1623448 C48.1397073,55.050862 48.2528756,54.9237536 48.3722815,54.8056601 L48.4907964,54.724527 C48.4652518,54.7025911 48.8603013,54.3311822 49.1320835,54.1013054 C49.4335687,53.932729 49.2146578,54.2413349 50.1125786,53.4498374 C50.3047568,53.3101083 50.5150538,53.1153891 50.7413904,52.894527 C50.967133,52.6733645 51.2154499,52.4326699 51.456638,52.1724433 C51.9283211,51.6408719 52.4210934,51.0813546 52.7992122,50.5894482 C52.3563409,51.0888669 52.4686182,50.8992561 52.636737,50.6654729 C53.0231726,50.21233 53.3026776,49.9974778 53.5575291,49.6095418 L53.6650538,49.6221625 C53.5587172,49.6879704 53.7803013,49.3640394 54.0407964,49.0004433 C54.2959449,48.6329408 54.5683211,48.2074433 54.6188162,48.1082807 C54.8677271,47.8672857 54.1400043,48.9060886 54.0820835,49.0503251 C54.7795093,48.0728226 54.9517865,47.8261182 55.1124796,47.5725024 C55.1923805,47.445394 55.2725786,47.3182857 55.4121825,47.0959211 C55.5488162,46.8711527 55.7626776,46.5622463 56.0502023,46.0339802 C56.6228756,44.8848965 55.8598063,46.1917389 56.0917865,45.619 C56.6350538,44.6306798 57.0479251,43.6114088 57.6119845,42.4485024 C57.5356479,42.5638916 57.4518855,42.6765763 57.3722815,42.789862 C57.756638,41.8066502 58.0411924,41.0136502 58.27644,40.2948719 C58.5360439,39.5836059 58.7118855,38.9360443 58.9504003,38.2629408 C59.3546578,36.3313743 59.4547568,34.8027684 59.5114895,33.6455714 C59.516836,33.0638177 59.5296083,32.5743152 59.5144598,32.1644433 C59.4924796,31.7542709 59.4699053,31.424931 59.447331,31.1656059 C59.3504994,30.1283054 59.2426776,30.2001231 59.1749548,30.7686551 C59.0858459,31.3254679 59.0282221,32.358261 58.907034,33.2450147 C58.8654499,33.6900443 58.7977271,34.0966108 58.7513904,34.393197 C58.706836,34.6897832 58.6789152,34.8760886 58.6789152,34.8760886 C58.4133706,36.3557142 58.1308954,37.645128 57.7726776,38.8374827 C57.616737,39.4405714 57.4097073,40.0085024 57.2297073,40.5806403 C57.1423805,40.8676108 57.0238657,41.1419605 56.9237667,41.4241231 C56.8156479,41.7026798 56.7238657,41.9890492 56.6029746,42.2658029 C55.6786182,44.4903497 54.5359449,46.8296847 52.2838657,49.6191576" id="Fill-7" fill="#FF1B1B"></path>
        </g>
    </g>
</svg>